<svg width="657" height="156" viewBox="0 0 657 156" fill="none" xmlns="http://www.w3.org/2000/svg">
<g clip-path="url(#clip0_897_17442)">
<path fill-rule="evenodd" clip-rule="evenodd" d="M184.135 8.24269C176.933 28.816 150.805 94.5436 144.559 107.8C140.953 115.458 135.273 125.386 131.937 129.863C128.602 134.34 125.873 138.362 125.873 138.801C125.873 139.239 128.583 139.582 131.898 139.563C140.487 139.515 148.87 134.804 157.859 124.977C168.979 112.822 174.71 98.8272 178.213 75.2814C183.687 38.4819 188.487 1.68093 188.014 0.128053C187.749 -0.741372 186.002 2.9099 184.135 8.24269ZM46.4888 22.964C37.8799 26.279 24.0528 41.549 18.2167 54.1858C15.7288 59.5744 12.4954 70.0122 11.0296 77.3814C8.3036 91.0907 -0.663975 155.205 0.0391415 155.972C0.251778 156.206 4.69304 146.167 9.90546 133.662C47.3762 43.7806 48.8462 40.6687 59.4964 28.6114C65.0136 22.3658 65.0618 22.217 61.834 21.2717C56.9845 19.8521 53.6064 20.224 46.4888 22.964ZM64.8067 33.0872C59.6765 36.8671 49.3424 50.7949 49.331 53.9456C49.3268 54.9964 52.6722 57.7178 56.7662 59.9913C64.4636 64.2687 114.168 85.355 116.551 85.355C117.292 85.355 116.259 83.4379 114.257 81.0931C112.254 78.7483 104.187 67.3001 96.3278 55.6519C88.4688 44.0038 80.5956 33.3677 78.8322 32.0178C74.4193 28.6378 70.433 28.9415 64.8067 33.0872ZM81.6021 91.9415C86.9591 98.9729 94.3092 109.008 97.9354 114.238C107.423 127.924 112.616 132.344 117.862 131.197C124.186 129.815 131.074 123.334 135.804 114.316C138.125 109.894 140.027 105.449 140.036 104.439C140.047 102.815 77.8228 79.1559 73.5361 79.1559C72.6161 79.1559 76.2465 84.9086 81.6021 91.9415Z" fill="white"/>
<path d="M267.607 138.377H256.193L227.593 105.907V138.377H216.572V92.0656H228.183L256.587 124.405V92.0656H267.607V138.377ZM292.565 138.377H280.954V92.0656H292.565V138.377ZM348.388 100.397H317.099V112.204H346.552V120.469H317.099V138.377H305.553V92.0656H348.388V100.397ZM396.406 100.528H379.285V138.377H367.609V100.528H350.422V92.0656H396.406V100.528ZM446.62 138.377H433.632L429.696 129.653H405.95L402.014 138.377H389.354L411.722 92.0656H424.251L446.62 138.377ZM425.957 121.453L417.888 103.348L409.689 121.453H425.957ZM451.737 92.0656H481.78C483.53 92.0656 484.973 92.1094 486.11 92.1968C487.247 92.2843 488.712 92.6342 490.505 93.2464C492.298 93.8149 493.719 94.6895 494.769 95.8703C496.518 97.8382 497.393 100.353 497.393 103.414C497.393 108.312 494.834 111.592 489.718 113.254C496.365 114.784 499.71 118.676 499.754 124.93C499.754 128.166 499.076 130.768 497.721 132.736C496.846 134.048 495.84 135.119 494.703 135.95C493.61 136.781 492.32 137.372 490.833 137.721C489.39 138.028 488.209 138.224 487.291 138.312C486.372 138.356 485.126 138.377 483.552 138.377H451.737V92.0656ZM463.216 110.236H480.665C484.382 110.236 486.241 108.531 486.241 105.12C486.197 101.752 484.361 100.069 480.731 100.069H463.216V110.236ZM463.216 130.243H481.321C485.913 130.243 488.209 128.144 488.209 123.946C488.209 120.185 486.154 118.305 482.043 118.305H463.216V130.243ZM547.87 138.377H510.545V92.0656H522.156V129.85H547.87V138.377ZM598.708 138.377H554.233V92.0656H597.396V100.397H565.844V110.827H596.346V119.092H565.844V130.112H598.708V138.377ZM603.921 126.767L614.482 124.077C616.757 128.888 621.982 131.293 630.16 131.293C631.079 131.293 632.019 131.249 632.981 131.162C633.943 131.031 635.168 130.79 636.654 130.44C638.141 130.09 639.344 129.478 640.262 128.603C641.224 127.685 641.705 126.548 641.705 125.192C641.705 124.58 641.596 124.033 641.377 123.552C641.202 123.071 640.831 122.656 640.262 122.306C639.737 121.956 639.235 121.672 638.754 121.453C638.316 121.235 637.617 121.016 636.654 120.797C635.692 120.579 634.905 120.426 634.293 120.338C633.724 120.207 632.806 120.054 631.538 119.879C627.864 119.31 625.306 118.917 623.863 118.698C622.42 118.436 620.824 118.086 619.074 117.649C617.325 117.211 615.86 116.708 614.679 116.14C609.825 113.866 607.398 110.192 607.398 105.12C607.398 101.84 608.426 99.0846 610.481 96.8543C612.536 94.5802 615.138 92.984 618.287 92.0656C621.436 91.1035 625.022 90.6225 629.045 90.6225C641.071 90.6225 649.162 94.3178 653.316 101.708L642.361 104.464C640.393 100.746 635.845 98.8878 628.717 98.8878C621.982 98.8878 618.615 100.681 618.615 104.267C618.615 106.147 619.84 107.481 622.289 108.268C623.338 108.574 628.302 109.515 637.179 111.089C638.797 111.395 640.131 111.657 641.181 111.876C642.23 112.095 643.564 112.532 645.182 113.188C646.844 113.844 648.156 114.609 649.118 115.484C650.08 116.359 650.933 117.561 651.676 119.092C652.42 120.579 652.791 122.306 652.791 124.274C652.791 134.638 644.942 139.821 629.242 139.821C622.682 139.821 617.391 138.749 613.367 136.606C609.388 134.463 606.239 131.184 603.921 126.767Z" fill="white"/>
</g>
<defs>
<clipPath id="clip0_897_17442">
<rect width="656.127" height="156" fill="white"/>
</clipPath>
</defs>
</svg>
