<svg width="158" height="159" viewBox="0 0 158 159" fill="none" xmlns="http://www.w3.org/2000/svg">
<path fill-rule="evenodd" clip-rule="evenodd" d="M80.7293 158.976C88.5355 158.806 96.0544 157.508 103.133 155.24L100.506 148.367C94.2071 150.345 87.5289 151.479 80.6011 151.633L80.7293 158.976ZM147.323 119.678C137.666 136.268 122.13 149.048 103.518 155.116L100.891 148.245C117.879 142.802 132.072 131.205 140.897 116.115L147.323 119.678ZM155.723 98.9004C157.318 92.4111 158.109 85.6116 157.987 78.6155C157.986 78.5397 157.984 78.4639 157.983 78.3882L150.639 78.5164C150.641 78.5921 150.642 78.6679 150.644 78.7436C150.754 85.0823 150.038 91.243 148.595 97.1231L155.723 98.9004ZM155.626 99.2914L148.498 97.5141C147.038 103.323 144.867 108.854 142.082 114.008L148.507 117.57C151.6 111.86 154.009 105.73 155.626 99.2914ZM146.773 39.3758C153.57 50.6929 157.617 63.8656 157.974 77.9854L150.63 78.1135C150.297 65.3315 146.629 53.4069 140.476 43.1592L146.773 39.3758ZM140.268 42.8143L146.564 39.0309C139.418 27.2682 129.292 17.5336 117.252 10.8574L113.691 17.2821C124.605 23.3331 133.786 32.1547 140.268 42.8143ZM78.6737 0.993774C92.5066 0.933042 105.544 4.44156 116.899 10.6629L113.338 17.0877C102.786 11.3149 90.6353 8.12372 77.749 8.34865C71.2489 8.46211 64.9661 9.43768 59.0077 11.1645L56.9828 4.10273C63.2223 2.29664 69.7842 1.23767 76.5674 1.03056L76.6899 8.04795L78.7962 8.01118L78.6737 0.993774ZM58.621 11.2777L56.5961 4.21575C43.2371 8.15717 31.3721 15.5282 21.9999 25.2944L27.2831 30.3964C35.7729 21.5439 46.52 14.8592 58.621 11.2777ZM0.0121876 81.3729C-0.364458 59.7949 7.94631 40.0868 21.7217 25.5858L27.005 30.688C14.5353 43.8366 7.0143 61.6946 7.35555 81.2448C7.46585 87.5638 8.39085 93.6774 10.0287 99.4873L2.96692 101.512C1.15647 95.0988 0.133962 88.3494 0.0121876 81.3729ZM10.1391 99.8748L3.07738 101.9C4.93199 108.343 7.5829 114.443 10.915 120.09L16.9973 116.435L18.2424 118.507L12.1755 122.153C15.6253 127.61 19.7239 132.612 24.361 137.053L29.4028 131.831L29.6927 132.111L24.6527 137.33C39.1359 151.061 58.7986 159.346 80.3256 158.984L80.1974 151.641C47.1118 152.194 18.8821 130.229 10.1391 99.8748Z" fill="url(#paint0_radial_897_17446)"/>
<path fill-rule="evenodd" clip-rule="evenodd" d="M80.7293 158.976C88.5355 158.806 96.0544 157.508 103.133 155.24L100.506 148.367C94.2071 150.345 87.5289 151.479 80.6011 151.633L80.7293 158.976ZM147.323 119.678C137.666 136.268 122.13 149.048 103.518 155.116L100.891 148.245C117.879 142.802 132.072 131.205 140.897 116.115L147.323 119.678ZM155.723 98.9004C157.318 92.4111 158.109 85.6116 157.987 78.6155C157.986 78.5397 157.984 78.4639 157.983 78.3882L150.639 78.5164C150.641 78.5921 150.642 78.6679 150.644 78.7436C150.754 85.0823 150.038 91.243 148.595 97.1231L155.723 98.9004ZM155.626 99.2914L148.498 97.5141C147.038 103.323 144.867 108.854 142.082 114.008L148.507 117.57C151.6 111.86 154.009 105.73 155.626 99.2914ZM146.773 39.3758C153.57 50.6929 157.617 63.8656 157.974 77.9854L150.63 78.1135C150.297 65.3315 146.629 53.4069 140.476 43.1592L146.773 39.3758ZM140.268 42.8143L146.564 39.0309C139.418 27.2682 129.292 17.5336 117.252 10.8574L113.691 17.2821C124.605 23.3331 133.786 32.1547 140.268 42.8143ZM78.6737 0.993774C92.5066 0.933042 105.544 4.44156 116.899 10.6629L113.338 17.0877C102.786 11.3149 90.6353 8.12372 77.749 8.34865C71.2489 8.46211 64.9661 9.43768 59.0077 11.1645L56.9828 4.10273C63.2223 2.29664 69.7842 1.23767 76.5674 1.03056L76.6899 8.04795L78.7962 8.01118L78.6737 0.993774ZM58.621 11.2777L56.5961 4.21575C43.2371 8.15717 31.3721 15.5282 21.9999 25.2944L27.2831 30.3964C35.7729 21.5439 46.52 14.8592 58.621 11.2777ZM0.0121876 81.3729C-0.364458 59.7949 7.94631 40.0868 21.7217 25.5858L27.005 30.688C14.5353 43.8366 7.0143 61.6946 7.35555 81.2448C7.46585 87.5638 8.39085 93.6774 10.0287 99.4873L2.96692 101.512C1.15647 95.0988 0.133962 88.3494 0.0121876 81.3729ZM10.1391 99.8748L3.07738 101.9C4.93199 108.343 7.5829 114.443 10.915 120.09L16.9973 116.435L18.2424 118.507L12.1755 122.153C15.6253 127.61 19.7239 132.612 24.361 137.053L29.4028 131.831L29.6927 132.111L24.6527 137.33C39.1359 151.061 58.7986 159.346 80.3256 158.984L80.1974 151.641C47.1118 152.194 18.8821 130.229 10.1391 99.8748Z" fill="url(#paint1_radial_897_17446)"/>
<defs>
<radialGradient id="paint0_radial_897_17446" cx="0" cy="0" r="1" gradientUnits="userSpaceOnUse" gradientTransform="translate(77.5893 -0.801297) rotate(124.205) scale(195.582 212.477)">
<stop stop-color="#0342E7"/>
<stop offset="0.536494" stop-color="#CB24FF"/>
</radialGradient>
<radialGradient id="paint1_radial_897_17446" cx="0" cy="0" r="1" gradientUnits="userSpaceOnUse" gradientTransform="translate(167.413 93.9741) rotate(-136.302) scale(134.375 152.02)">
<stop stop-color="#16A9FE"/>
<stop offset="1" stop-color="#16A9FE" stop-opacity="0"/>
</radialGradient>
</defs>
</svg>
