<svg width="550" height="553" viewBox="0 0 550 553" fill="none" xmlns="http://www.w3.org/2000/svg">
<path fill-rule="evenodd" clip-rule="evenodd" d="M134 56.7438C107.365 74.008 84.0818 96.0046 65.3415 121.543L66.212 122.047C84.7419 96.8174 107.724 75.0613 134 57.9366V56.7438ZM414 56.0112C441.675 73.511 465.811 96.1004 485.094 122.464L485.964 121.96C466.473 95.2887 442.035 72.4615 414 54.8289V56.0112ZM305 534.348V533.342C327.682 530.775 349.477 525.285 370 517.256V518.33C349.47 526.325 327.676 531.792 305 534.348ZM534.768 250H533.763C531.127 222.971 524.344 197.158 514.059 173.204L514.93 172.699C525.294 196.805 532.124 222.79 534.768 250ZM247 533.453V534.459C218.729 531.383 191.816 523.783 167 512.399V511.298C191.804 522.73 218.719 530.363 247 533.453ZM17.6583 246C20.5726 220.245 27.2569 195.633 37.146 172.728L36.2744 172.224C26.3068 195.281 19.5752 220.064 16.6519 246H17.6583Z" fill="#3A3A3A"/>
<g clip-path="url(#clip0_790_15996)">
<path fill-rule="evenodd" clip-rule="evenodd" d="M47.9026 159.514C53.1718 160.098 58.5335 157.595 61.354 152.71C65.1567 146.123 62.9 137.701 56.3135 133.898C54.6668 132.948 52.9054 132.376 51.1301 132.155C50.9082 132.128 50.6861 132.106 50.464 132.089C45.3547 131.707 40.2351 134.205 37.5019 138.939C33.6992 145.525 35.9559 153.947 42.5424 157.75C44.2437 158.732 46.0676 159.31 47.9026 159.514ZM56.8871 132.904C64.0225 137.024 66.4673 146.148 62.3477 153.283C58.2281 160.419 49.104 162.864 41.9686 158.744C34.8332 154.624 32.3884 145.5 36.5081 138.365C40.6277 131.23 49.7517 128.785 56.8871 132.904Z" fill="#3A3A3A"/>
<path d="M45.4115 152.781L52.8708 139.861M52.8708 139.861L45.0327 141.961M52.8708 139.861L54.971 147.699" stroke="#E2E2E2" stroke-width="1.72137"/>
</g>
<g clip-path="url(#clip1_790_15996)">
<path fill-rule="evenodd" clip-rule="evenodd" d="M489.852 154.973C489.245 154.289 488.698 153.533 488.222 152.71C488.222 152.71 488.222 152.71 488.222 152.71C484.42 146.123 486.676 137.701 493.263 133.898C499.026 130.571 506.195 131.883 510.444 136.675C510.952 137.248 511.418 137.87 511.835 138.539C511.916 138.671 511.996 138.804 512.074 138.939C515.877 145.525 513.62 153.948 507.034 157.75C501.271 161.078 494.102 159.766 489.852 154.973ZM507.608 158.744C500.472 162.864 491.348 160.419 487.229 153.284C483.109 146.148 485.554 137.024 492.689 132.905C499.824 128.785 508.949 131.23 513.068 138.365C517.188 145.501 514.743 154.625 507.608 158.744Z" fill="#3A3A3A"/>
<path d="M496.132 138.867L503.591 151.787M503.591 151.787L505.691 143.949M503.591 151.787L495.753 149.687" stroke="#E2E2E2" stroke-width="1.72137"/>
</g>
<g clip-path="url(#clip2_790_15996)">
<path fill-rule="evenodd" clip-rule="evenodd" d="M261.731 536.97C261.73 537.029 261.73 537.089 261.73 537.148C261.73 544.754 267.895 550.919 275.5 550.919C282.205 550.919 287.791 546.127 289.02 539.781C289.185 538.929 289.271 538.049 289.271 537.148C289.271 529.543 283.106 523.377 275.5 523.377C268.846 523.377 263.293 528.098 262.009 534.373C261.837 535.213 261.742 536.082 261.731 536.97ZM260.582 537.148C260.582 528.909 267.261 522.23 275.5 522.23C283.74 522.23 290.419 528.909 290.419 537.148C290.419 545.387 283.74 552.067 275.5 552.067C267.261 552.067 260.582 545.387 260.582 537.148Z" fill="#3A3A3A"/>
<path d="M283.534 537.148L268.615 537.148M268.615 537.148L274.353 542.886M268.615 537.148L274.353 531.41" stroke="#E2E2E2" stroke-width="1.72137"/>
</g>
<path d="M529.708 277.485L529.679 276.015L538.273 267.549C532.955 267.674 530.036 267.741 529.516 267.752L529.487 266.312L540.075 266.103L540.106 267.648L531.525 276.054C536.993 275.916 539.907 275.843 540.267 275.836L540.296 277.276L529.708 277.485Z" fill="white"/>
<path d="M538.649 289.496L538.889 281.564L535.501 281.462L535.27 289.093L534.025 289.056L534.256 281.424L529.608 281.284L529.653 279.799L540.238 280.12L539.954 289.535L538.649 289.496Z" fill="white"/>
<path d="M537.971 300.126L538.268 295.801L528.96 295.161L529.062 293.665L538.371 294.304L538.667 289.994L539.924 290.081L539.228 300.212L537.971 300.126Z" fill="white"/>
<path d="M538.526 307.057L538.324 308.559L531.916 307.698C531.52 307.644 531.174 307.628 530.879 307.649C530.583 307.67 530.337 307.738 530.14 307.852C529.953 307.968 529.819 308.061 529.739 308.131C529.659 308.201 529.554 308.308 529.424 308.452C528.858 309.133 528.497 310.053 528.341 311.213C528.317 311.391 528.299 311.601 528.287 311.841C528.285 312.083 528.294 312.427 528.315 312.874C528.335 313.321 528.436 313.738 528.616 314.125C528.796 314.513 529.043 314.808 529.359 315.012C529.695 315.219 530.194 315.367 530.858 315.456L537.281 316.319L537.079 317.821L530.761 316.971C529.918 316.858 529.277 316.671 528.838 316.41C527.285 315.505 526.691 313.695 527.056 310.979C527.088 310.742 527.13 310.5 527.183 310.255C527.225 310.018 527.32 309.688 527.468 309.264C527.606 308.839 527.768 308.457 527.955 308.119C528.142 307.781 528.404 307.442 528.742 307.104C529.09 306.768 529.477 306.517 529.903 306.352C530.498 306.13 531.315 306.088 532.356 306.228L538.526 307.057Z" fill="white"/>
<path d="M533.577 330.035L534.367 325.772L525.193 324.074L525.466 322.599L534.64 324.297L535.426 320.05L536.665 320.279L534.816 330.264L533.577 330.035Z" fill="white"/>
<path d="M523.573 331.968L523.897 330.472L534.247 332.715L533.923 334.21L523.573 331.968Z" fill="white"/>
<path d="M520.722 343.758L522.781 335.476L533.058 338.03L532.697 339.486L523.671 337.242L521.974 344.07L520.722 343.758Z" fill="white"/>
<path d="M519.767 346.951L520.181 345.478L530.376 348.341L529.962 349.814L519.767 346.951Z" fill="white"/>
<path d="M525.226 360.971L526.523 356.835L517.62 354.044L518.069 352.612L526.971 355.404L528.264 351.281L529.466 351.658L526.428 361.348L525.226 360.971Z" fill="white"/>
<path d="M521.671 374.421L517.428 367.139L513.585 365.726L514.098 364.332L517.969 365.756L525.859 363.032L525.191 364.848L518.907 366.9L522.334 372.619L521.671 374.421Z" fill="white"/>
<path d="M512.419 373.177L511.804 374.692L510.039 373.975C509.501 373.757 509.152 373.475 508.99 373.128C508.825 372.791 508.847 372.352 509.056 371.811L509.82 372.122C509.75 372.374 509.744 372.56 509.803 372.681C509.858 372.812 510.006 372.926 510.247 373.024L510.664 373.193L510.918 372.568L512.419 373.177Z" fill="white"/>
<path d="M503.123 390.093L503.949 388.31L509.308 386.842L511.459 382.201L507.608 380.416L508.245 379.042L517.853 383.495L514.819 390.041C514.52 390.685 514.235 391.17 513.963 391.496C513.492 392.06 512.938 392.41 512.303 392.545C511.667 392.68 511.018 392.594 510.355 392.287C509.14 391.724 508.558 390.826 508.611 389.594C508.633 389.263 508.708 388.873 508.838 388.426L503.123 390.093ZM512.595 382.711L510.394 387.461C510.238 387.797 510.121 388.073 510.042 388.29C509.959 388.516 509.909 388.791 509.892 389.113C509.88 389.449 509.94 389.747 510.073 390.007C510.245 390.374 510.54 390.653 510.957 390.847C511.302 391.007 511.653 391.07 512.01 391.037C512.42 391.007 512.743 390.87 512.977 390.626C513.207 390.391 513.425 390.051 513.631 389.606L516.079 384.326L512.595 382.711Z" fill="white"/>
<path d="M497.838 400.119L502.545 391.12L511.929 396.028L507.403 404.681L506.246 404.076L510.077 396.753L507.286 395.293L503.552 402.43L502.436 401.846L506.169 394.709L503.006 393.054L498.994 400.723L497.838 400.119Z" fill="white"/>
<path d="M500.306 416.879L493.69 407.218L494.456 405.911L506.164 406.872L505.323 408.309L495.499 407.425L501.14 415.455L500.306 416.879Z" fill="white"/>
<path d="M484.97 420.971L490.511 412.461L499.385 418.239L494.057 426.423L492.964 425.711L497.473 418.784L494.834 417.066L490.439 423.816L489.383 423.129L493.778 416.378L490.786 414.43L486.063 421.683L484.97 420.971Z" fill="white"/>
<path d="M476.637 432.447L477.505 431.26L489.473 429.74C485.168 426.614 482.806 424.898 482.386 424.591L483.237 423.429L491.782 429.683L490.87 430.93L478.949 432.411C483.381 435.617 485.742 437.326 486.033 437.539L485.182 438.701L476.637 432.447Z" fill="white"/>
<path d="M483.102 441.334L482.142 442.505L477.141 438.409C476.832 438.155 476.546 437.96 476.284 437.822C476.021 437.685 475.776 437.613 475.548 437.608C475.328 437.608 475.165 437.617 475.06 437.635C474.956 437.652 474.81 437.688 474.623 437.742C473.785 438.024 472.994 438.618 472.253 439.523C472.139 439.662 472.014 439.831 471.877 440.03C471.748 440.234 471.575 440.532 471.358 440.923C471.141 441.314 471.008 441.722 470.957 442.146C470.907 442.57 470.963 442.952 471.125 443.291C471.302 443.643 471.649 444.031 472.168 444.456L477.18 448.563L476.22 449.734L471.289 445.695C470.631 445.156 470.184 444.66 469.947 444.208C469.1 442.622 469.545 440.769 471.282 438.65C471.434 438.464 471.597 438.281 471.771 438.1C471.93 437.921 472.184 437.69 472.533 437.406C472.874 437.117 473.212 436.877 473.549 436.687C473.885 436.497 474.286 436.347 474.751 436.237C475.224 436.133 475.685 436.123 476.134 436.206C476.757 436.329 477.475 436.723 478.287 437.389L483.102 441.334Z" fill="white"/>
<path d="M459.701 452.278L466.5 444.735L474.366 451.826L467.828 459.079L466.859 458.205L472.392 452.066L470.053 449.957L464.659 455.94L463.724 455.097L469.117 449.113L466.465 446.723L460.67 453.152L459.701 452.278Z" fill="white"/>
<path d="M457.425 457.695L456.823 459.076C456.561 459.066 456.36 459.059 456.219 459.058C456.084 459.063 455.889 459.092 455.634 459.145C455.379 459.198 455.102 459.286 454.803 459.41C453.971 459.745 453.125 460.331 452.265 461.168C451.362 462.046 450.852 462.878 450.735 463.661C450.649 464.261 450.809 464.769 451.213 465.184C451.436 465.414 451.682 465.551 451.95 465.597C452.211 465.65 452.487 465.612 452.779 465.481C453.078 465.358 453.341 465.22 453.57 465.068C453.791 464.922 454.048 464.728 454.341 464.484L455.607 463.462C456.279 462.92 456.751 462.544 457.023 462.336C457.294 462.141 457.611 461.958 457.974 461.786C458.33 461.622 458.678 461.534 459.017 461.525C459.696 461.506 460.287 461.754 460.789 462.27C461.542 463.044 461.749 463.959 461.409 465.015C461.128 465.931 460.454 466.908 459.386 467.947C457.573 469.712 455.813 470.434 454.106 470.114L454.708 468.754C455.408 468.742 456.057 468.613 456.654 468.366C457.251 468.12 457.869 467.686 458.507 467.066C458.815 466.766 459.084 466.462 459.315 466.154C459.552 465.853 459.758 465.534 459.933 465.197C460.1 464.867 460.171 464.539 460.147 464.213C460.131 463.895 460.004 463.614 459.766 463.37C459.578 463.177 459.378 463.05 459.167 462.991C458.955 462.945 458.732 462.967 458.498 463.056C458.27 463.152 458.064 463.255 457.878 463.366C457.7 463.483 457.486 463.643 457.235 463.845L454.661 465.91C453.796 466.598 452.978 466.976 452.206 467.044C451.435 467.111 450.752 466.84 450.159 466.231C449.853 465.915 449.624 465.566 449.474 465.182C449.323 464.798 449.259 464.351 449.28 463.843C449.308 463.341 449.503 462.767 449.865 462.122C450.235 461.483 450.771 460.822 451.473 460.139C452.419 459.218 453.415 458.521 454.461 458.047C455.507 457.573 456.495 457.456 457.425 457.695Z" fill="white"/>
<path d="M445.833 478.293L449.069 475.408L442.861 468.444L443.98 467.446L450.189 474.41L453.414 471.535L454.252 472.476L446.672 479.233L445.833 478.293Z" fill="white"/>
<path d="M429.461 479.577L430.988 478.341L436.445 479.384L440.421 476.165L437.749 472.866L438.927 471.912L445.591 480.142L439.984 484.683C439.432 485.13 438.962 485.439 438.574 485.612C437.903 485.911 437.252 485.981 436.622 485.822C435.991 485.664 435.447 485.301 434.987 484.733C434.144 483.692 434.017 482.63 434.607 481.547C434.773 481.259 435.012 480.943 435.326 480.599L429.461 479.577ZM441.216 477.123L437.147 480.417C436.86 480.65 436.633 480.847 436.467 481.007C436.293 481.173 436.127 481.398 435.969 481.68C435.81 481.976 435.733 482.27 435.738 482.562C435.731 482.967 435.872 483.348 436.162 483.705C436.401 484 436.688 484.212 437.023 484.34C437.405 484.493 437.755 484.512 438.073 484.397C438.383 484.287 438.728 484.078 439.109 483.77L443.632 480.107L441.216 477.123Z" fill="white"/>
<path d="M420.337 486.235L428.524 480.227L434.789 488.765L426.916 494.542L426.144 493.49L432.808 488.6L430.944 486.06L424.45 490.826L423.705 489.81L430.199 485.045L428.087 482.166L421.109 487.287L420.337 486.235Z" fill="white"/>
<path d="M408.56 494.053L410.01 493.091L412.527 494.554L417.954 490.958L417.587 488.07L419 487.133L420.274 498.994L418.936 499.88L408.56 494.053ZM413.736 495.211L418.799 498.153L418.1 492.319L413.736 495.211Z" fill="white"/>
<path d="M394.897 501.936L396.132 501.225L400.603 509.139L399.824 499.099L401.046 498.395L409.325 504.117C406.388 499.116 404.854 496.502 404.724 496.277L405.946 495.574L411.231 504.751L409.437 505.784L401.217 500.166L401.949 510.095L400.181 511.113L394.897 501.936Z" fill="white"/>
<path d="M394.282 504.615L393.293 505.751C393.046 505.663 392.856 505.596 392.722 505.552C392.592 505.516 392.397 505.486 392.138 505.46C391.878 505.433 391.588 505.434 391.266 505.462C390.372 505.532 389.389 505.837 388.317 506.376C387.192 506.943 386.456 507.583 386.109 508.295C385.847 508.841 385.846 509.373 386.107 509.891C386.251 510.177 386.444 510.382 386.686 510.507C386.918 510.636 387.194 510.682 387.511 510.645C387.833 510.617 388.126 510.565 388.389 510.488C388.644 510.416 388.948 510.308 389.301 510.164L390.815 509.569C391.619 509.253 392.182 509.037 392.504 508.92C392.821 508.816 393.178 508.737 393.576 508.682C393.965 508.632 394.323 508.653 394.65 508.746C395.303 508.932 395.792 509.346 396.116 509.989C396.602 510.954 396.524 511.889 395.883 512.794C395.339 513.583 394.402 514.312 393.072 514.982C390.812 516.121 388.916 516.28 387.384 515.462L388.367 514.346C389.039 514.545 389.696 514.617 390.34 514.561C390.984 514.506 391.703 514.278 392.498 513.877C392.882 513.684 393.23 513.475 393.543 513.25C393.86 513.035 394.152 512.792 394.419 512.523C394.678 512.259 394.845 511.967 394.92 511.65C395 511.341 394.963 511.035 394.81 510.731C394.688 510.49 394.536 510.309 394.352 510.189C394.164 510.082 393.945 510.036 393.694 510.05C393.448 510.073 393.22 510.11 393.01 510.159C392.805 510.218 392.552 510.306 392.253 510.423L389.178 511.62C388.146 512.016 387.252 512.131 386.495 511.963C385.739 511.795 385.17 511.332 384.787 510.573C384.589 510.18 384.476 509.778 384.448 509.366C384.42 508.955 384.493 508.51 384.666 508.031C384.843 507.561 385.202 507.072 385.741 506.565C386.286 506.067 386.995 505.598 387.871 505.157C389.049 504.563 390.209 504.197 391.349 504.06C392.489 503.922 393.467 504.107 394.282 504.615Z" fill="white"/>
<path d="M158.436 47.2866L159.994 46.8262C160.092 49.1677 158.783 51.0661 156.069 52.5213C154.985 53.1025 153.93 53.4412 152.903 53.5375C151.872 53.625 150.898 53.4268 149.981 52.9429C149.067 52.4454 148.322 51.6591 147.746 50.5838C146.957 49.112 146.826 47.6617 147.354 46.2329C147.881 44.8041 149.017 43.622 150.762 42.6865C153.274 41.3399 155.508 41.3055 157.464 42.583L156.212 43.6454C155.524 43.1863 154.762 42.9932 153.927 43.0662C153.097 43.1256 152.267 43.3774 151.439 43.8215C151.007 44.053 150.614 44.3148 150.26 44.6067C149.901 44.8898 149.582 45.2255 149.302 45.6137C149.031 45.9973 148.832 46.3989 148.706 46.8185C148.579 47.2382 148.548 47.7089 148.612 48.2305C148.676 48.7521 148.852 49.2818 149.14 49.8194C149.811 51.0709 150.731 51.803 151.9 52.0158C153.065 52.2198 154.308 51.9675 155.63 51.2587C157.507 50.2524 158.443 48.9283 158.436 47.2866Z" fill="white"/>
<path d="M158.908 38.8066L160.28 38.1636L163.023 44.0176C163.193 44.3798 163.367 44.6795 163.544 44.9166C163.721 45.1537 163.912 45.3241 164.115 45.4277C164.314 45.5222 164.464 45.5842 164.566 45.6136C164.669 45.643 164.815 45.6736 165.007 45.7053C165.886 45.8126 166.855 45.618 167.914 45.1215C168.077 45.0451 168.263 44.9469 168.472 44.827C168.676 44.6979 168.961 44.5039 169.325 44.2447C169.69 43.9855 169.986 43.6754 170.215 43.3144C170.443 42.9534 170.557 42.585 170.558 42.2092C170.55 41.8153 170.404 41.315 170.12 40.7084L167.37 34.8408L168.742 34.1979L171.447 39.9704C171.808 40.74 171.997 41.3801 172.015 41.8905C172.095 43.6865 170.894 45.1658 168.413 46.3286C168.196 46.4304 167.97 46.5254 167.735 46.6133C167.514 46.7061 167.185 46.8052 166.748 46.9104C166.316 47.0247 165.907 47.0948 165.521 47.1208C165.136 47.1468 164.71 47.1092 164.242 47.0078C163.771 46.8975 163.351 46.7078 162.982 46.439C162.473 46.0592 161.995 45.394 161.55 44.4432L158.908 38.8066Z" fill="white"/>
<path d="M174.13 41.0653L175.205 40.0095C175.443 40.1171 175.628 40.1983 175.758 40.253C175.885 40.2984 176.077 40.3443 176.333 40.3905C176.59 40.4368 176.88 40.4586 177.203 40.4561C178.1 40.4564 179.103 40.2294 180.214 39.7749C181.38 39.2977 182.164 38.7177 182.565 38.0349C182.869 37.5107 182.912 36.9802 182.692 36.4434C182.571 36.1472 182.394 35.9276 182.163 35.7846C181.941 35.6378 181.67 35.5703 181.351 35.5821C181.028 35.5846 180.732 35.6139 180.463 35.6699C180.203 35.7221 179.892 35.8062 179.529 35.9224L177.973 36.3971C177.147 36.6487 176.569 36.8204 176.239 36.9121C175.914 36.9908 175.552 37.042 175.151 37.0656C174.759 37.0854 174.404 37.0362 174.086 36.918C173.449 36.6816 172.994 36.2303 172.721 35.5639C172.312 34.5643 172.463 33.6383 173.173 32.7859C173.776 32.0421 174.767 31.388 176.146 30.8237C178.488 29.8656 180.39 29.8543 181.853 30.7898L180.786 31.8261C180.133 31.575 179.483 31.452 178.836 31.4571C178.19 31.4622 177.455 31.6333 176.632 31.9703C176.234 32.1332 175.87 32.3143 175.541 32.5138C175.208 32.7039 174.898 32.9227 174.61 33.1701C174.332 33.4137 174.143 33.691 174.043 34.0019C173.94 34.3036 173.952 34.6117 174.081 34.9264C174.183 35.1763 174.321 35.3683 174.495 35.5025C174.674 35.6237 174.889 35.687 175.14 35.6924C175.387 35.6886 175.617 35.6701 175.83 35.6368C176.04 35.5943 176.298 35.5263 176.606 35.4329L179.766 34.4804C180.825 34.1656 181.726 34.1214 182.467 34.3476C183.207 34.5739 183.739 35.0804 184.061 35.8671C184.227 36.2743 184.309 36.6841 184.304 37.0964C184.3 37.5086 184.193 37.9468 183.983 38.4109C183.77 38.8657 183.374 39.3247 182.796 39.7879C182.215 40.2419 181.471 40.6545 180.564 41.0256C179.342 41.5255 178.158 41.7995 177.01 41.8476C175.863 41.8956 174.903 41.6349 174.13 41.0653Z" fill="white"/>
<path d="M192.75 26.2523L188.667 27.7083L191.801 36.4963L190.388 37.0001L187.254 28.2121L183.185 29.663L182.762 28.4762L192.327 25.0655L192.75 26.2523Z" fill="white"/>
<path d="M208.7 25.781C209.145 27.2762 208.972 28.6785 208.183 29.988C207.403 31.2947 206.05 32.2346 204.124 32.8079C202.216 33.3754 200.565 33.366 199.17 32.7795C197.781 32.1806 196.843 31.0617 196.356 29.4227C196.093 28.5409 196.026 27.7003 196.153 26.9008C196.277 26.0917 196.558 25.3874 196.995 24.7878C197.439 24.1758 197.991 23.6464 198.651 23.1996C199.311 22.7528 200.049 22.4082 200.863 22.1658C201.64 21.9348 202.42 21.8225 203.204 21.8291C203.986 21.8261 204.738 21.9518 205.461 22.2063C206.19 22.4483 206.844 22.8746 207.422 23.4851C208 24.0955 208.426 24.8608 208.7 25.781ZM207.205 26.0693C207.059 25.5805 206.832 25.1317 206.523 24.723C206.223 24.3114 205.836 23.9571 205.361 23.66C204.893 23.3506 204.301 23.1668 203.585 23.1086C202.869 23.0505 202.084 23.1484 201.231 23.4022C200.599 23.5904 200.03 23.8535 199.525 24.1915C199.028 24.517 198.607 24.9083 198.263 25.3653C197.919 25.8224 197.697 26.3578 197.598 26.9715C197.509 27.5824 197.568 28.2377 197.776 28.9374C198.15 30.193 198.87 31.0533 199.937 31.5183C201.004 31.9834 202.285 31.9934 203.78 31.5485C204.614 31.3004 205.308 30.9686 205.863 30.5532C206.415 30.1282 206.805 29.6679 207.033 29.1723C207.258 28.667 207.384 28.1601 207.41 27.6516C207.433 27.1335 207.365 26.606 207.205 26.0693Z" fill="white"/>
<path d="M226.013 26.9639L224.625 27.2869L222.638 18.4164L220.476 28.2524L219.103 28.572L212.835 20.6976C214.198 26.3353 214.91 29.2808 214.968 29.5341L213.595 29.8536L211.195 19.5392L213.211 19.0701L219.452 26.8275L221.626 17.1119L223.613 16.6495L226.013 26.9639Z" fill="white"/>
<path d="M230.289 26.2524L228.786 26.5372L226.815 16.1322L228.318 15.8474L230.289 26.2524Z" fill="white"/>
<path d="M243.532 24.105L233.082 25.7215L232.889 24.4763L239.858 15.2629L232.283 16.4345L232.086 15.1597L241.765 13.6624L241.956 14.8928L234.97 24.0937L243.331 22.8005L243.532 24.105Z" fill="white"/>
<path d="M257.821 22.6316L256.09 22.8075L254.543 20.3412L248.067 20.999L247.047 23.726L245.361 23.8973L249.752 12.8067L251.349 12.6445L257.821 22.6316ZM253.779 19.1976L250.666 14.2367L248.571 19.7266L253.779 19.1976Z" fill="white"/>
<path d="M267.848 12.8121L263.519 13.0417L264.013 22.3586L262.515 22.438L262.021 13.1211L257.707 13.3499L257.64 12.0917L267.781 11.5539L267.848 12.8121Z" fill="white"/>
<path d="M272.016 22.095L270.487 22.1308L270.239 11.5437L271.768 11.5079L272.016 22.095Z" fill="white"/>
<path d="M287.698 17.0739C287.672 18.6337 287.085 19.9189 285.937 20.9294C284.8 21.9401 283.226 22.4283 281.217 22.394C279.227 22.36 277.655 21.853 276.502 20.8732C275.359 19.8835 274.802 18.5338 274.831 16.824C274.846 15.9042 275.036 15.0823 275.398 14.3584C275.761 13.6245 276.241 13.0376 276.838 12.5977C277.446 12.148 278.132 11.8097 278.896 11.5827C279.66 11.3558 280.467 11.2495 281.317 11.264C282.127 11.2779 282.904 11.4062 283.65 11.649C284.397 11.8818 285.076 12.2284 285.688 12.6889C286.31 13.1396 286.805 13.7432 287.172 14.4996C287.539 15.2559 287.715 16.1141 287.698 17.0739ZM286.186 16.8981C286.195 16.3881 286.113 15.8917 285.942 15.4087C285.78 14.9258 285.518 14.4713 285.155 14.045C284.802 13.6089 284.293 13.2552 283.628 12.9838C282.962 12.7124 282.185 12.5691 281.295 12.5539C280.635 12.5426 280.013 12.622 279.43 12.792C278.857 12.9523 278.338 13.1984 277.872 13.5305C277.407 13.8626 277.034 14.3063 276.755 14.8616C276.485 15.4171 276.344 16.0598 276.332 16.7897C276.309 18.0995 276.737 19.1369 277.614 19.902C278.491 20.6671 279.709 21.063 281.269 21.0897C282.139 21.1045 282.901 20.9975 283.555 20.7687C284.209 20.5298 284.719 20.2085 285.086 19.8047C285.453 19.3909 285.726 18.9455 285.904 18.4685C286.083 17.9814 286.177 17.458 286.186 16.8981Z" fill="white"/>
<path d="M301.478 23.2121L300.012 23.1062L292.37 13.7715C292.006 19.0791 291.806 21.9923 291.769 22.5109L290.332 22.4072L291.095 11.8447L292.636 11.956L300.22 21.2714C300.584 15.8135 300.779 12.905 300.805 12.5459L302.241 12.6496L301.478 23.2121Z" fill="white"/>
<path d="M305.296 22.0748L306.921 22.258L306.707 24.151C306.642 24.7273 306.465 25.1401 306.175 25.3892C305.895 25.6394 305.467 25.737 304.889 25.6819L304.982 24.8621C305.243 24.8615 305.424 24.8165 305.525 24.7272C305.636 24.639 305.706 24.4658 305.735 24.2074L305.785 23.7602L305.114 23.6846L305.296 22.0748Z" fill="white"/>
<path d="M323.78 23.1566L325.295 23.7407C323.946 25.6568 321.752 26.3645 318.713 25.8638C317.499 25.6638 316.456 25.2893 315.584 24.7402C314.713 24.1812 314.061 23.4302 313.629 22.4874C313.208 21.5363 313.097 20.4589 313.295 19.2551C313.567 17.6073 314.347 16.3778 315.636 15.5666C316.925 14.7553 318.546 14.5107 320.5 14.8326C323.312 15.2959 325.104 16.63 325.876 18.8348L324.236 18.9143C323.97 18.1306 323.484 17.5133 322.778 17.0625C322.083 16.6035 321.272 16.2976 320.344 16.1448C319.861 16.0651 319.39 16.0331 318.931 16.0487C318.474 16.0545 318.017 16.1261 317.558 16.2634C317.11 16.4023 316.707 16.5995 316.351 16.855C315.995 17.1104 315.683 17.4645 315.416 17.9171C315.149 18.3697 314.966 18.8969 314.866 19.4988C314.635 20.8999 314.919 22.0411 315.716 22.9225C316.515 23.794 317.655 24.3516 319.135 24.5955C321.236 24.9418 322.785 24.4621 323.78 23.1566Z" fill="white"/>
<path d="M339.936 24.6662C339.598 26.1893 338.767 27.3316 337.441 28.093C336.125 28.8566 334.485 29.0212 332.523 28.5868C330.58 28.1567 329.141 27.3466 328.206 26.1564C327.283 24.9586 327.007 23.5249 327.376 21.8554C327.575 20.9571 327.924 20.1894 328.424 19.5523C328.925 18.9055 329.513 18.4261 330.186 18.1142C330.871 17.7948 331.611 17.6 332.405 17.53C333.199 17.4599 334.011 17.5167 334.841 17.7004C335.631 17.8755 336.368 18.1563 337.051 18.543C337.735 18.9199 338.332 19.395 338.84 19.9684C339.36 20.5341 339.724 21.2242 339.933 22.0386C340.142 22.853 340.143 23.7289 339.936 24.6662ZM338.489 24.1923C338.599 23.6944 338.618 23.1916 338.546 22.6841C338.484 22.1787 338.317 21.6809 338.047 21.1909C337.788 20.6933 337.36 20.2451 336.762 19.8464C336.164 19.4478 335.431 19.1523 334.562 18.9599C333.917 18.8173 333.293 18.7712 332.687 18.8216C332.094 18.8643 331.536 19.002 331.014 19.2346C330.491 19.4671 330.037 19.8276 329.653 20.316C329.278 20.8066 329.011 21.4082 328.854 22.121C328.571 23.4 328.782 24.5018 329.489 25.4265C330.196 26.3511 331.311 26.982 332.834 27.3191C333.684 27.5072 334.452 27.5543 335.138 27.4604C335.827 27.3568 336.391 27.1438 336.831 26.8212C337.274 26.489 337.63 26.1069 337.899 25.675C338.171 25.2333 338.368 24.7391 338.489 24.1923Z" fill="white"/>
<path d="M352.539 33.5575L351.125 33.1569L345.531 22.4681C344.1 27.5923 343.314 30.4045 343.173 30.9048L341.787 30.5124L344.673 20.3232L346.159 20.7442L351.7 31.4022C353.161 26.131 353.941 23.3222 354.039 22.9758L355.425 23.3682L352.539 33.5575Z" fill="white"/>
<path d="M366.8 28.5385L362.694 27.1466L359.699 35.9826L358.278 35.501L361.274 26.665L357.182 25.2779L357.587 24.0847L367.204 27.3452L366.8 28.5385Z" fill="white"/>
<path d="M375.822 42.0309L373.99 41.3193L372.185 36.0642L367.418 34.2119L365.88 38.1688L364.468 37.6202L368.303 27.7489L375.028 30.3617C375.69 30.6188 376.192 30.8729 376.535 31.1239C377.128 31.5581 377.512 32.0882 377.687 32.7141C377.862 33.34 377.818 33.9932 377.553 34.6737C377.068 35.9227 376.209 36.5599 374.976 36.5852C374.644 36.5848 374.251 36.5339 373.796 36.4326L375.822 42.0309ZM367.855 33.046L372.734 34.9417C373.079 35.0757 373.362 35.175 373.584 35.2397C373.815 35.3079 374.092 35.3405 374.415 35.3373C374.751 35.3283 375.045 35.2493 375.296 35.1001C375.65 34.9053 375.911 34.5935 376.078 34.1647C376.215 33.8105 376.256 33.4563 376.201 33.1022C376.145 32.6942 375.987 32.381 375.729 32.1626C375.48 31.9478 375.127 31.7516 374.67 31.5742L369.245 29.4666L367.855 33.046Z" fill="white"/>
<path d="M390.71 43.1254C390.067 44.5464 389.018 45.493 387.563 45.965C386.118 46.4411 384.48 46.2646 382.649 45.4353C380.837 44.6142 379.595 43.5251 378.926 42.1679C378.269 40.8057 378.294 39.3458 378.999 37.7881C379.379 36.95 379.879 36.2707 380.499 35.7502C381.123 35.2205 381.796 34.8724 382.519 34.7059C383.256 34.5345 384.02 34.4962 384.811 34.5911C385.602 34.6861 386.385 34.9089 387.159 35.2596C387.897 35.5938 388.56 36.0204 389.149 36.5393C389.741 37.0492 390.227 37.6369 390.606 38.3027C390.998 38.9634 391.213 39.7137 391.249 40.5537C391.286 41.3937 391.106 42.2509 390.71 43.1254ZM389.392 42.3637C389.603 41.8991 389.725 41.4111 389.759 40.8996C389.802 40.3922 389.742 39.8709 389.578 39.3356C389.428 38.7954 389.101 38.2687 388.598 37.7554C388.095 37.2421 387.438 36.8019 386.627 36.4347C386.026 36.1624 385.424 35.9886 384.821 35.9132C384.232 35.8329 383.658 35.8527 383.098 35.9726C382.539 36.0926 382.021 36.3519 381.544 36.7506C381.076 37.1534 380.692 37.6873 380.39 38.3523C379.85 39.5456 379.83 40.6675 380.332 41.7179C380.833 42.7682 381.794 43.6153 383.215 44.2589C384.008 44.6178 384.749 44.8221 385.44 44.8717C386.136 44.9121 386.732 44.8199 387.229 44.5949C387.73 44.3609 388.157 44.0603 388.51 43.6932C388.867 43.317 389.161 42.8738 389.392 42.3637Z" fill="white"/>
<path d="M398.85 53.1114L391.251 49.224L396.075 39.7962L397.41 40.4794L393.174 48.7588L399.437 51.963L398.85 53.1114Z" fill="white"/>
<path d="M144.888 496.188L146.127 496.891L141.574 504.759L149.831 498.994L151.058 499.69L150.327 509.728C153.147 504.66 154.621 502.012 154.749 501.786L155.975 502.482L150.747 511.692L148.947 510.67L149.619 500.736L141.433 506.404L139.659 505.397L144.888 496.188Z" fill="white"/>
<path d="M137.218 503.837L135.945 503.014L139.456 497.585C139.673 497.249 139.835 496.943 139.942 496.667C140.049 496.391 140.093 496.139 140.073 495.912C140.048 495.694 140.021 495.533 139.991 495.431C139.962 495.329 139.91 495.188 139.836 495.009C139.461 494.207 138.783 493.488 137.8 492.853C137.649 492.755 137.467 492.649 137.255 492.536C137.037 492.431 136.722 492.292 136.309 492.121C135.896 491.949 135.476 491.862 135.049 491.859C134.621 491.857 134.248 491.955 133.929 492.154C133.599 492.369 133.253 492.758 132.889 493.321L129.37 498.762L128.098 497.94L131.56 492.587C132.021 491.873 132.463 491.373 132.887 491.087C134.367 490.067 136.258 490.302 138.559 491.789C138.761 491.92 138.961 492.061 139.16 492.214C139.356 492.352 139.615 492.579 139.935 492.894C140.261 493.2 140.537 493.509 140.764 493.822C140.99 494.135 141.184 494.517 141.346 494.967C141.502 495.425 141.564 495.882 141.531 496.337C141.479 496.97 141.168 497.728 140.598 498.609L137.218 503.837Z" fill="white"/>
<path d="M124.196 482.168L131.142 487.127L124.989 495.746L123.768 494.874L129.172 487.305L123.446 483.218L124.196 482.168Z" fill="white"/>
<path d="M110.24 483.1L113.659 485.765L119.394 478.406L120.577 479.328L114.842 486.687L118.249 489.343L117.475 490.337L109.465 484.094L110.24 483.1Z" fill="white"/>
<path d="M112.499 472.79L113.673 473.771L106.881 481.896L105.707 480.915L112.499 472.79Z" fill="white"/>
<path d="M105.235 471.655L108.802 474.754L107.995 475.682L104.428 472.583L105.235 471.655Z" fill="white"/>
<path d="M106.77 467.86L99.5556 475.613L94.691 471.086C93.4465 469.928 92.9062 468.776 93.0702 467.631C93.1677 466.998 93.4481 466.432 93.9113 465.935C94.613 465.181 95.4255 464.851 96.3487 464.945C96.7108 464.981 97.0612 465.082 97.3997 465.247C97.7381 465.411 98.0094 465.575 98.2133 465.737C98.4173 465.9 98.6913 466.141 99.0354 466.461L102.758 469.926L105.65 466.818L106.77 467.86ZM101.911 470.858L98.3308 467.527C98.0745 467.288 97.8591 467.102 97.6844 466.966C97.5097 466.831 97.2824 466.708 97.0025 466.598C96.7158 466.495 96.4316 466.463 96.15 466.502C95.7484 466.551 95.3808 466.756 95.047 467.114C94.7404 467.444 94.5731 467.807 94.5449 468.204C94.5273 468.502 94.5948 468.804 94.7473 469.11C94.8925 469.409 95.0422 469.637 95.1964 469.794C95.3439 469.959 95.5603 470.174 95.8458 470.439L99.3049 473.658L101.911 470.858Z" fill="white"/>
<path d="M89.2758 450.673L90.4899 451.919L89.5205 454.665L94.0631 459.328L96.8328 458.431L98.0156 459.645L86.599 463.102L85.4791 461.952L89.2758 450.673ZM89.1003 455.975L87.1504 461.497L92.7532 459.724L89.1003 455.975Z" fill="white"/>
<path d="M72.8765 447.982L81.3005 447.738L84.3797 445.039L85.3586 446.155L82.2568 448.875L80.8761 457.107L79.6005 455.652L80.8037 449.151L74.1422 449.425L72.8765 447.982Z" fill="white"/>
<path d="M78.0159 439.975L76.9847 438.706L78.4631 437.505C78.9132 437.139 79.3289 436.969 79.7101 436.994C80.0851 437.011 80.4593 437.242 80.8329 437.686L80.1927 438.206C80.0054 438.023 79.8446 437.928 79.7102 437.922C79.5696 437.907 79.3983 437.982 79.1966 438.146L78.8474 438.43L79.2731 438.953L78.0159 439.975Z" fill="white"/>
<path d="M65.9796 421.283L66.8154 422.437L59.409 427.708L69.3139 425.888L70.1409 427.03L65.3122 435.86C69.9805 432.418 72.42 430.62 72.6306 430.468L73.4575 431.61L64.8802 437.821L63.6662 436.144L68.3977 427.385L58.5987 429.147L57.4023 427.494L65.9796 421.283Z" fill="white"/>
<path d="M58.1046 408.908L59.0401 410.375L57.5331 412.866L61.0334 418.355L63.9276 418.039L64.8389 419.469L52.9581 420.534L52.0952 419.18L58.1046 408.908ZM56.8555 414.063L53.8242 419.074L59.6702 418.477L56.8555 414.063Z" fill="white"/>
<path d="M51.87 397.843L52.84 399.552L50.918 404.765L53.443 409.214L57.1347 407.118L57.8826 408.436L48.6728 413.663L45.1112 407.389C44.7607 406.771 44.5321 406.257 44.4254 405.846C44.2401 405.135 44.2774 404.481 44.5371 403.885C44.7968 403.29 45.2441 402.811 45.8789 402.451C47.0443 401.79 48.1127 401.839 49.0842 402.598C49.3416 402.808 49.6142 403.096 49.9022 403.462L51.87 397.843ZM52.3676 409.841L49.7834 405.288C49.6008 404.967 49.444 404.711 49.3131 404.521C49.1772 404.322 48.983 404.121 48.7306 403.92C48.4645 403.714 48.187 403.59 47.8982 403.547C47.5002 403.474 47.1012 403.551 46.7012 403.778C46.3707 403.966 46.1151 404.214 45.9343 404.524C45.72 404.875 45.644 405.218 45.7063 405.55C45.7636 405.874 45.9133 406.249 46.1551 406.675L49.0281 411.737L52.3676 409.841Z" fill="white"/>
<path d="M45.9441 385.997L46.8455 387.793L43.8969 394.626L47.5287 396.479L50.4648 395.006L51.1174 396.306L41.6521 401.056L40.9861 399.729L46.0271 397.199L37.5619 392.904L36.573 390.934L42.5409 393.93L45.9441 385.997Z" fill="white"/>
<path d="M41.5375 375.958L45.6568 385.24L35.9772 389.535L32.0161 380.61L33.2089 380.081L36.5615 387.635L39.4407 386.357L36.1733 378.995L37.325 378.484L40.5924 385.846L43.8555 384.398L40.3447 376.487L41.5375 375.958Z" fill="white"/>
<path d="M28.8577 369.165L30.4415 373.2L39.1265 369.791L39.6745 371.187L30.9895 374.596L32.5679 378.618L31.395 379.078L27.6848 369.625L28.8577 369.165Z" fill="white"/>
<path d="M37.1868 364.727L27.1696 368.163L25.0138 361.877C24.4623 360.269 24.5288 358.999 25.2133 358.067C25.5978 357.554 26.1117 357.187 26.7549 356.967C27.7292 356.633 28.6012 356.725 29.371 357.243C29.6732 357.446 29.9347 357.7 30.1556 358.005C30.3764 358.31 30.5385 358.582 30.6417 358.821C30.745 359.061 30.8729 359.403 31.0253 359.847L32.6751 364.657L36.6904 363.28L37.1868 364.727ZM31.4881 365.08L29.9016 360.455C29.7881 360.124 29.6862 359.857 29.5959 359.656C29.5056 359.454 29.363 359.239 29.1681 359.009C28.9637 358.784 28.7283 358.621 28.4618 358.522C28.0842 358.377 27.6637 358.384 27.2002 358.543C26.7745 358.689 26.4556 358.93 26.2435 359.267C26.0876 359.522 26.0048 359.82 25.9951 360.161C25.9822 360.493 26.0067 360.765 26.0686 360.976C26.121 361.191 26.2105 361.483 26.337 361.852L27.87 366.321L31.4881 365.08Z" fill="white"/>
<path d="M30.5958 343.95L33.0103 352.136L22.8529 355.132L22.4285 353.693L31.3486 351.062L29.3585 344.315L30.5958 343.95Z" fill="white"/>
<path d="M27.3578 330.703L27.7706 332.393L25.5412 334.265L27.0858 340.589L29.9273 341.223L30.3295 342.87L18.7393 340.049L18.3585 338.49L27.3578 330.703ZM24.5139 335.18L20.0295 338.947L25.756 340.266L24.5139 335.18Z" fill="white"/>
<path d="M22.0553 319.751L22.0873 318.127C24.3489 318.742 25.7628 320.563 26.3292 323.59C26.5553 324.799 26.5592 325.908 26.3407 326.915C26.1123 327.924 25.6288 328.793 24.8901 329.521C24.1398 330.241 23.165 330.714 21.9658 330.938C20.3242 331.245 18.9023 330.931 17.6999 329.996C16.4975 329.061 15.7143 327.621 15.3502 325.675C14.8262 322.873 15.4687 320.734 17.2778 319.256L17.9121 320.77C17.2662 321.287 16.8519 321.955 16.6691 322.773C16.4746 323.582 16.4638 324.449 16.6367 325.373C16.7268 325.855 16.8574 326.308 17.0286 326.734C17.19 327.162 17.4134 327.567 17.6989 327.952C17.9826 328.326 18.3052 328.637 18.667 328.884C19.0287 329.132 19.4678 329.304 19.9844 329.401C20.501 329.498 21.0591 329.49 21.6587 329.378C23.0545 329.117 24.0306 328.461 24.5869 327.411C25.1335 326.362 25.2689 325.101 24.9931 323.627C24.6014 321.533 23.6222 320.241 22.0553 319.751Z" fill="white"/>
<path d="M23.3731 306.057L24.7645 316.117L14.2744 317.568L12.9365 307.895L14.2291 307.716L15.3616 315.903L18.4819 315.471L17.3782 307.492L18.6263 307.32L19.73 315.299L23.2663 314.81L22.0805 306.236L23.3731 306.057Z" fill="white"/>
<path d="M21.5566 303.613L21.3861 301.987L23.2807 301.788C23.8575 301.727 24.2987 301.812 24.6043 302.041C24.9089 302.261 25.0964 302.658 25.1668 303.234L24.3463 303.32C24.2893 303.065 24.2064 302.897 24.0976 302.818C23.9877 302.729 23.8035 302.698 23.5449 302.725L23.0974 302.772L23.1678 303.444L21.5566 303.613Z" fill="white"/>
<path d="M21.774 283.068L21.8662 284.805L19.3282 286.232L19.6733 292.733L22.348 293.883L22.4378 295.575L11.5717 290.654L11.4867 289.051L21.774 283.068ZM18.1491 286.94L13.044 289.81L18.4266 292.168L18.1491 286.94Z" fill="white"/>
<path d="M21.8347 282.216L11.2447 282.23L11.2361 275.585C11.2338 273.885 11.7073 272.704 12.6565 272.043C13.186 271.682 13.7908 271.502 14.4707 271.501C15.5007 271.499 16.2962 271.868 16.8572 272.608C17.0776 272.897 17.243 273.222 17.3535 273.582C17.4639 273.942 17.5293 274.252 17.5497 274.512C17.57 274.772 17.5805 275.137 17.5811 275.607L17.5877 280.692L21.8327 280.686L21.8347 282.216ZM16.3277 280.708L16.3214 275.818C16.3209 275.468 16.3105 275.183 16.2903 274.963C16.27 274.743 16.2046 274.493 16.0943 274.214C15.9739 273.934 15.8036 273.704 15.5834 273.524C15.273 273.265 14.8729 273.135 14.3829 273.136C13.9329 273.136 13.553 273.262 13.2434 273.512C13.0136 273.703 12.8389 273.958 12.7194 274.278C12.5998 274.588 12.5351 274.853 12.5254 275.073C12.5057 275.293 12.4961 275.598 12.4966 275.988L12.5027 280.713L16.3277 280.708Z" fill="white"/>
<path d="M21.8896 270.495L11.3095 270.036L11.5969 263.398C11.6705 261.699 12.1961 260.541 13.1737 259.923C13.7188 259.586 14.331 259.432 15.0104 259.462C16.0394 259.506 16.8177 259.91 17.3451 260.674C17.5524 260.973 17.7032 261.305 17.7975 261.669C17.8918 262.034 17.9434 262.346 17.9521 262.607C17.9608 262.867 17.955 263.233 17.9347 263.702L17.7147 268.782L21.9557 268.966L21.8896 270.495ZM16.4553 268.743L16.6668 263.857C16.6819 263.508 16.6843 263.223 16.6738 263.002C16.6633 262.781 16.6092 262.529 16.5114 262.244C16.4036 261.959 16.2438 261.722 16.0317 261.533C15.7333 261.26 15.3393 261.112 14.8497 261.091C14.4002 261.072 14.0151 261.18 13.6946 261.417C13.4566 261.596 13.2707 261.844 13.137 262.158C13.0037 262.463 12.9273 262.725 12.9078 262.944C12.8783 263.163 12.8551 263.467 12.8382 263.857L12.6338 268.577L16.4553 268.743Z" fill="white"/>
<defs>
<clipPath id="clip0_790_15996">
<rect width="29.837" height="29.837" fill="white" transform="translate(29.0488 151.285) rotate(-60)"/>
</clipPath>
<clipPath id="clip1_790_15996">
<rect width="29.837" height="29.837" fill="white" transform="translate(505.609 125.445) rotate(60)"/>
</clipPath>
<clipPath id="clip2_790_15996">
<rect width="29.837" height="29.837" fill="white" transform="translate(290.419 552.067) rotate(-180)"/>
</clipPath>
</defs>
</svg>
