<svg width="38" height="38" viewBox="0 0 38 38" fill="none" xmlns="http://www.w3.org/2000/svg">
<path d="M17.2309 34.1148C16.2747 33.5628 15.4059 32.7778 14.7155 31.7657L7.44909 21.291C7.01061 20.6602 6.83644 19.8986 6.99226 19.1385C7.1477 18.3785 7.57178 17.7261 8.20259 17.2876C8.29929 17.2017 8.4669 17.1568 8.59357 17.1828C9.98837 17.1383 12.2059 18.0407 13.0678 19.2467L12.737 9.18825C12.7101 8.41714 12.9922 7.68311 13.5018 7.12747C14.0113 6.57189 14.7635 6.25064 15.5344 6.22351C17.112 6.18999 18.4655 7.44356 18.499 9.02111L18.6312 13.5355C18.9103 13.4607 19.1898 13.3858 19.4636 13.4023C20.473 13.3712 21.4142 13.8675 21.933 14.6862C22.3703 14.4195 22.8376 14.2642 23.3702 14.2412C24.3796 14.2101 25.3208 14.7064 25.8396 15.5252C26.277 15.2584 26.7442 15.1031 27.2768 15.0801C28.0833 15.0735 28.8529 15.3762 29.4233 15.9418C29.9585 16.4867 30.2648 17.1831 30.2564 17.9335L30.0601 26.6967C29.9496 30.9767 26.7724 33.8631 23.639 34.7926C21.3487 35.4065 19.0726 35.178 17.2312 34.1149L17.2309 34.1148ZM8.81993 18.5885C8.6059 18.7954 8.44239 19.0786 8.40552 19.3879C8.32773 19.768 8.4325 20.159 8.63395 20.4641L15.9008 30.9393C17.8561 33.7678 21.0094 34.0304 23.2843 33.3609C25.9149 32.5662 28.6237 30.1642 28.6902 26.6145L28.8718 17.795C28.8733 17.4654 28.7481 17.1098 28.4701 16.855C28.1774 16.5443 27.7823 16.4108 27.3616 16.4038C26.8847 16.4119 26.4677 16.6433 26.1871 17.0477C26.0087 17.2752 25.7444 17.406 25.4351 17.3691C25.1463 17.2969 24.9394 17.0829 24.8646 16.8038C24.7409 16.1185 24.094 15.6033 23.3789 15.6155C22.9021 15.6236 22.4851 15.855 22.2045 16.2594C22.026 16.4869 21.7617 16.6177 21.4525 16.5808C21.1637 16.5086 20.9568 16.2946 20.882 16.0155C20.7583 15.3302 20.1114 14.8151 19.3963 14.8272C19.0109 14.8407 18.6347 15.0014 18.3594 15.3146C18.1453 15.5215 17.8662 15.5963 17.5774 15.5241C17.3091 15.4163 17.1226 15.1669 17.1036 14.8729L16.9366 9.11068C16.9301 8.30422 16.2533 7.6775 15.4264 7.71945C15.041 7.73289 14.6649 7.89362 14.41 8.17128C14.1551 8.44912 13.9863 8.82355 13.9996 9.20918L14.3852 21.7077C14.3837 22.0374 14.1849 22.3002 13.885 22.4104C13.5854 22.5207 13.2258 22.4074 13.0597 22.1227L11.8817 20.0729C11.3927 19.3658 9.85926 18.6693 8.81983 18.5885L8.81993 18.5885Z" fill="#616161"/>
<path d="M10.4006 13.3158C10.3297 13.2749 10.259 13.2341 10.2085 13.1578C8.2912 10.9176 7.99123 7.67545 9.48363 5.09053C11.4258 1.72662 15.7266 0.574185 19.0905 2.51637C22.065 4.23368 23.362 7.95694 22.146 11.1266C21.9769 11.5012 21.5807 11.6971 21.206 11.5282C20.8315 11.3591 20.6355 10.9629 20.8044 10.5882C21.7996 8.04671 20.7475 5.12578 18.375 3.75603C15.7192 2.22265 12.3121 3.13577 10.7788 5.79143C9.59303 7.84532 9.82514 10.387 11.3638 12.2198C11.6213 12.5101 11.5938 12.9664 11.2831 13.2592C10.9984 13.4253 10.6483 13.4591 10.4005 13.316L10.4006 13.3158Z" fill="#616161"/>
</svg>
