<svg width="692" height="778" viewBox="0 0 692 778" fill="none" xmlns="http://www.w3.org/2000/svg">
<g filter="url(#filter0_d_275_942)">
<path d="M346 577.617C450.17 577.617 534.617 493.17 534.617 389C534.617 284.83 450.17 200.383 346 200.383C241.83 200.383 157.383 284.83 157.383 389C157.383 493.17 241.83 577.617 346 577.617Z" fill="url(#paint0_radial_275_942)"/>
</g>
<path d="M346.423 581C452.228 581 538 495.228 538 389.424C538 283.619 452.228 197.848 346.423 197.848C240.618 197.848 154.846 283.619 154.846 389.424C154.846 495.228 240.618 581 346.423 581Z" fill="#C74D00"/>
<path opacity="0.3" d="M247.292 260.158C234.787 270.609 221.24 281.583 216.551 297.259C215.509 300.394 214.988 303.529 212.903 305.62C209.256 309.8 201.962 309.277 198.835 313.98C208.735 311.368 218.635 308.755 226.972 303.007C228.535 301.962 230.619 300.394 232.703 299.349C238.956 297.259 245.208 301.962 251.982 301.962C260.839 302.484 269.176 294.646 276.992 297.781C277.513 300.394 278.034 303.529 279.076 306.142C287.934 304.575 296.27 300.917 303.565 295.691C305.128 294.646 306.17 293.601 306.17 292.034C306.17 289.943 303.565 288.376 302.523 287.331C298.876 283.673 299.397 277.925 302.002 273.222C304.607 269.042 308.775 265.906 312.944 262.771C314.507 261.203 316.591 259.636 317.112 257.546C317.633 255.455 316.591 252.32 313.986 252.32C312.944 252.32 311.902 252.843 310.339 252.32C307.733 251.798 306.691 248.14 305.649 245.527C303.565 240.824 297.833 238.212 292.623 237.689C287.413 237.689 282.202 239.779 277.513 242.392C273.866 244.482 269.697 247.095 265.529 247.617C262.403 248.14 259.797 247.617 256.671 247.095C244.166 245.527 230.098 248.14 221.24 257.023C214.988 263.294 211.34 272.177 203.525 276.88C199.877 278.97 194.146 281.583 195.709 285.763C200.398 286.808 205.088 283.673 208.214 279.492C211.34 275.835 213.946 271.654 218.635 270.087C221.761 269.042 225.409 269.564 228.014 267.997C232.703 265.384 234.787 256.501 240.519 257.546L247.292 260.158Z" fill="url(#paint1_radial_275_942)"/>
<path d="M436.46 326.864C443.823 324.308 452.239 325.842 458.55 330.443C460.128 331.465 461.706 332.999 463.284 334.022C466.44 335.555 470.648 335.555 473.803 334.022C477.485 332.999 480.115 330.443 482.745 327.887C483.797 326.864 484.849 325.842 485.375 324.819C488.005 319.707 483.797 312.549 487.479 307.948C488.53 306.414 490.634 305.392 490.634 303.347C490.634 301.302 488.531 300.279 486.953 299.768C478.537 297.212 469.07 299.768 460.654 302.836L449.609 315.105C447.505 312.549 444.875 309.482 442.771 306.926C441.719 305.903 440.667 304.881 439.615 304.369C438.037 303.858 435.934 305.392 434.882 306.414C433.83 307.948 432.778 309.482 431.2 309.993C432.778 310.504 433.304 312.038 433.304 313.06C433.304 314.594 432.778 315.617 433.304 317.15C434.356 316.128 435.408 315.617 435.934 314.594C437.512 315.105 436.986 317.15 435.934 318.173C434.882 319.707 433.304 321.24 431.726 322.774C431.2 323.285 429.622 323.797 429.096 323.285C428.57 323.797 428.57 323.797 428.044 324.308C429.096 326.353 429.096 328.909 428.044 331.465C429.622 331.465 431.726 331.465 433.304 331.465C433.83 330.954 434.356 329.932 433.83 328.909L436.46 326.864Z" fill="#B55537"/>
<path d="M275.44 497.837C273.867 497.316 272.819 495.754 273.343 494.192C280.157 491.068 280.681 480.655 287.495 477.531C290.64 475.969 294.833 477.011 297.978 478.052C301.123 479.093 304.792 481.176 307.936 481.176C309.509 481.176 310.557 481.697 311.605 482.738C312.13 483.779 311.605 484.821 311.081 485.862C310.033 487.944 307.936 490.027 306.888 492.63C305.84 494.713 304.792 497.837 305.84 499.92C306.888 503.043 310.033 504.605 313.178 505.647C317.895 507.729 322.612 509.291 327.854 510.853C331.523 511.895 335.192 512.936 337.288 515.539C340.957 519.704 339.385 525.952 340.433 531.679C342.005 538.448 346.723 545.216 344.626 551.464C342.53 552.506 339.909 553.026 337.812 553.026C335.192 553.026 333.095 551.464 332.047 549.382C330.999 546.258 333.095 542.613 330.999 540.531C330.474 540.01 329.426 539.489 328.378 539.489C323.661 538.448 318.943 537.927 314.226 537.407C313.702 537.407 312.654 537.407 312.13 537.927C311.605 538.448 311.605 538.969 311.081 538.969C310.557 539.489 310.033 538.969 309.509 538.969C304.792 536.886 304.792 529.597 302.171 524.911C300.598 521.787 297.454 519.704 294.833 517.622C292.212 515.539 289.592 513.977 287.495 511.895C285.923 510.853 283.826 509.291 282.254 509.291C281.205 509.291 279.633 509.812 278.585 509.291C274.916 508.771 274.392 503.564 270.723 502.002C272.295 501.481 273.867 500.961 275.44 499.92V497.837Z" fill="#B55537"/>
<path opacity="0.6" d="M500.43 376.125C508.717 372.99 517.523 372.99 525.811 369.855C528.919 368.81 531.509 367.242 534.617 365.674C527.365 308.195 495.25 258.554 449.149 228.769C450.703 233.472 450.703 239.22 447.595 242.878C438.271 237.652 425.839 240.788 419.623 249.148C415.997 254.374 415.997 262.734 421.695 264.824C423.767 265.347 425.839 265.347 427.393 265.347C442.415 264.302 457.954 269.005 469.868 278.41C469.868 282.068 469.868 285.203 469.868 288.861C466.242 289.906 463.652 286.249 461.062 283.636C456.4 278.41 449.149 276.32 442.415 278.41C435.681 280.501 430.501 286.249 429.465 293.042C428.947 296.699 428.947 300.88 428.947 304.537C428.429 312.376 424.803 320.214 419.105 325.962C415.997 328.574 411.853 331.187 408.228 328.574C403.566 325.439 407.192 317.601 408.228 311.853C409.264 304.015 404.084 296.699 397.35 293.564C390.098 290.951 381.81 292.519 375.594 296.699C374.04 297.744 373.004 298.789 371.968 300.357C370.414 302.447 370.414 305.06 369.896 307.673C368.86 318.123 367.824 329.619 360.055 336.935C352.803 343.728 341.925 344.25 332.083 344.773C325.867 344.773 319.651 345.295 313.436 345.295C309.81 336.412 329.493 332.232 326.903 322.826C326.385 319.691 322.759 317.601 319.133 317.601C315.508 317.601 312.4 319.169 309.81 320.214C287.536 329.619 264.227 337.457 239.881 338.502C240.399 336.935 242.989 336.935 243.507 337.98C245.061 333.8 245.579 328.574 244.543 323.871C264.227 319.169 283.91 315.511 303.594 313.421C311.364 312.376 319.651 311.853 325.867 307.15C332.083 302.447 335.709 292.519 330.529 286.249C328.975 284.158 326.385 282.068 326.385 279.456C326.385 277.888 327.939 276.32 328.975 274.753C334.155 269.527 338.817 264.302 343.997 259.077C336.745 252.284 328.975 244.968 321.723 238.175C321.723 233.995 324.831 229.814 328.975 228.769C325.867 221.976 316.544 220.409 309.292 219.886C289.09 219.364 268.889 223.021 249.723 229.814L244.025 229.292C243.507 228.769 242.989 228.769 242.471 228.769C212.428 248.626 188.6 276.843 173.579 309.763C174.615 309.763 175.133 309.763 176.169 309.763C177.205 314.988 177.723 319.691 178.759 324.916C179.277 327.007 179.277 328.574 180.312 330.142C183.938 335.367 191.708 331.187 197.406 328.574C203.622 325.962 210.356 324.916 216.572 325.962C220.198 331.187 207.248 337.457 211.392 342.683C212.428 344.25 213.982 344.25 215.536 345.295C219.68 348.431 218.126 355.746 222.27 358.359C223.306 358.881 224.86 359.404 226.413 359.404C245.579 360.972 265.263 356.791 281.838 346.863C284.946 353.134 288.572 359.404 291.68 365.674C284.428 364.629 279.766 372.99 273.55 375.603C270.443 376.648 267.335 376.648 263.709 376.648C251.795 376.648 239.881 376.125 228.485 376.125C223.306 376.125 217.608 376.125 213.464 372.99C204.658 367.765 202.068 354.701 192.226 352.088C188.082 351.043 183.938 352.088 179.277 352.611C173.061 353.134 166.845 352.088 161.147 349.998C160.111 354.179 159.593 358.359 159.075 363.062C160.111 363.584 161.147 364.107 162.183 364.629C165.809 367.242 168.399 373.513 173.061 374.558C176.169 375.603 179.795 374.035 182.384 375.08C186.528 377.17 190.672 379.26 193.78 382.396C196.888 385.531 197.924 391.279 201.55 393.369C205.176 395.459 209.838 395.982 213.982 397.027C218.126 398.072 222.788 394.414 226.931 394.937C231.075 395.459 234.701 401.73 238.845 402.252C242.989 402.775 246.615 403.82 250.759 404.342C254.903 404.865 258.529 404.865 262.673 405.91C266.817 407.478 271.996 408.523 276.658 408C280.284 408 284.946 408 288.572 405.91C291.68 404.342 292.716 398.594 295.824 397.027C298.932 395.459 303.076 395.459 306.184 393.892C309.292 392.324 313.954 392.846 317.062 391.279C320.169 389.711 322.759 387.099 325.867 385.008C328.975 383.441 331.565 381.351 334.673 379.26C338.299 377.17 339.335 371.422 342.443 369.332C346.069 367.242 351.767 369.332 355.393 367.765C359.019 366.197 361.609 363.584 365.234 363.062C368.86 362.539 372.486 357.836 376.63 357.836C380.256 357.836 383.882 364.629 387.508 365.152C391.134 365.674 395.796 362.017 399.422 362.539C403.048 363.062 406.674 364.629 410.817 365.674C414.443 366.197 418.587 366.72 422.213 367.765C425.839 368.287 429.983 369.855 433.609 369.855C437.753 370.377 441.379 367.242 445.005 367.242C448.631 366.72 452.775 369.332 456.4 368.287C460.026 367.242 462.616 364.629 466.242 363.062C469.35 361.494 475.048 364.107 478.156 362.539C481.264 360.972 482.818 355.224 485.926 353.656C489.552 352.088 492.66 348.953 496.286 348.431C499.912 347.908 503.537 348.431 507.163 348.953C503.537 348.953 500.948 353.134 497.84 354.179C494.732 355.224 492.66 357.836 489.552 359.927C486.444 362.017 483.336 363.584 480.228 365.674C477.12 367.765 471.94 366.197 468.832 367.765C466.242 369.332 464.688 370.9 462.616 372.467C465.206 373.513 467.278 375.603 469.35 377.693C465.724 375.603 463.652 375.603 460.026 373.513C461.062 373.513 461.58 372.99 462.616 372.467C462.098 372.467 461.58 371.945 461.58 371.945C458.472 371.422 454.329 376.648 451.221 377.17C447.595 377.17 444.487 375.603 440.861 375.603C437.235 375.603 434.127 377.17 430.501 377.17C426.875 377.17 423.767 378.738 420.141 378.738C416.515 378.738 414.961 376.648 411.853 376.648C412.889 380.306 415.479 380.828 417.551 384.486C419.623 388.144 421.177 390.234 423.767 393.369C426.357 395.982 427.393 400.685 431.019 402.252C434.645 404.342 438.271 404.342 441.897 404.865C443.969 405.387 446.041 405.91 448.113 406.955C448.631 406.955 449.149 406.432 449.667 406.432C450.703 405.91 452.257 406.432 453.811 406.955C457.954 405.91 464.688 402.775 465.206 398.594C465.724 395.459 457.954 391.279 457.954 388.144C457.954 385.008 466.242 382.396 467.796 385.008C465.724 385.008 466.76 386.576 467.796 388.666C468.832 390.234 468.314 393.369 468.314 395.459C468.314 397.027 469.868 400.685 468.832 402.252C466.76 404.342 463.134 406.432 460.026 408C458.472 409.045 455.882 407.478 453.293 406.432H452.775C451.221 406.955 449.149 406.432 447.595 405.91C445.005 407.478 442.933 409.568 440.343 409.568C437.235 409.045 434.645 406.955 431.537 405.387C428.429 404.342 425.321 403.82 422.731 402.252C420.141 400.685 415.479 401.207 412.889 399.639C410.817 398.072 409.264 394.937 407.71 392.324C406.156 389.711 404.602 387.099 403.048 384.486C401.494 381.873 398.904 381.351 396.314 380.306C393.206 379.26 390.616 380.306 387.508 379.783C383.882 379.26 380.256 375.08 376.63 375.08C373.004 375.603 368.86 375.08 365.234 376.125C361.609 377.17 357.983 379.26 354.875 380.828C351.249 382.396 350.213 388.144 347.105 390.234C343.997 392.324 336.745 392.846 333.637 395.459C336.745 393.892 343.479 392.846 346.587 391.801C350.213 390.756 353.321 388.666 356.429 388.144C360.055 387.621 363.68 382.918 367.306 382.918C370.932 382.918 374.558 387.621 378.184 388.144C381.81 388.666 388.026 388.666 391.134 389.711C387.508 390.234 381.292 391.801 377.666 391.801C378.184 391.801 378.702 392.324 378.702 392.324C382.328 394.414 383.882 399.639 387.508 401.207C391.134 402.775 395.278 402.775 399.422 404.342C402.012 405.387 404.084 406.432 406.674 406.955C408.746 407.478 411.335 407.478 413.407 408C416.515 408.523 417.033 406.432 420.141 408C415.997 407.478 414.961 409.045 410.817 408C409.264 407.478 408.228 407.478 406.674 406.432C405.638 406.432 404.602 406.432 403.566 406.432C400.458 406.432 396.832 409.045 393.724 409.045C390.616 408.523 388.026 403.82 385.436 403.297C382.328 402.775 379.22 401.73 376.112 401.207C373.004 400.162 369.378 402.775 366.27 402.252C363.163 401.73 360.573 398.072 357.465 398.072C354.357 398.072 350.213 397.549 347.623 398.072C344.515 398.594 340.371 403.297 337.781 404.865C340.371 403.82 345.551 403.82 348.141 404.865C350.731 405.91 351.249 410.09 353.321 411.658C355.393 413.748 360.055 412.703 362.127 415.316C364.198 417.406 365.752 420.018 367.824 421.586C369.896 423.154 371.968 425.244 374.04 426.811C374.558 426.811 374.558 426.811 375.076 426.811C379.22 427.857 382.846 430.469 386.99 430.469C389.062 430.469 391.134 430.469 393.724 430.469C396.832 429.947 399.94 429.424 402.012 429.424C399.94 430.469 396.832 430.469 393.724 430.469C391.652 430.992 389.58 430.992 388.026 430.992C384.4 430.992 380.256 428.902 376.63 427.857C375.594 427.334 374.558 426.811 373.522 426.289C369.378 425.766 364.716 428.379 361.091 426.811C356.947 425.244 353.321 422.631 349.695 421.586C346.069 421.064 342.961 416.361 339.335 416.361C335.709 416.361 332.083 420.541 328.457 420.541C324.831 421.064 321.205 420.541 317.579 421.586C312.4 423.154 308.256 425.244 303.076 425.244C302.558 425.244 301.522 425.244 301.004 425.244C303.594 427.334 306.184 430.469 309.292 432.037C312.918 433.604 315.508 436.74 319.133 437.785C322.759 438.83 327.421 436.74 331.047 437.785C334.673 438.83 338.299 438.83 341.925 439.875C345.551 440.92 348.141 446.668 351.767 447.19C355.393 447.713 360.573 441.965 364.198 442.488C367.824 443.533 370.932 446.668 374.558 447.713C376.63 448.236 380.774 447.19 382.328 448.236C383.882 449.281 383.364 453.983 384.918 455.551C387.508 457.641 390.616 459.731 393.724 460.254C396.832 460.254 400.458 458.686 403.566 457.641C406.674 456.596 408.228 453.461 410.817 451.371C413.407 449.281 415.997 447.19 418.069 445.1C420.141 442.488 424.803 442.488 427.393 439.875C429.465 437.262 430.501 432.037 433.091 429.947C434.127 430.992 436.199 435.172 436.199 436.74C432.573 437.785 429.465 439.352 428.947 443.01C432.573 442.488 435.681 442.488 438.789 440.397C441.379 438.307 442.415 433.604 445.523 431.514C448.631 429.424 451.739 426.289 455.365 425.244C459.508 424.199 465.206 423.676 469.35 424.721C473.494 425.244 476.602 430.992 480.746 432.037C484.89 433.082 489.034 430.469 493.178 429.947C495.25 429.947 496.804 429.424 498.876 429.424C500.948 428.902 502.501 428.379 504.055 426.811C502.501 428.379 500.948 429.424 498.876 429.424C497.322 429.947 496.286 429.947 494.732 430.469C491.624 431.514 487.998 434.65 484.372 434.65C480.746 434.65 477.12 434.65 473.494 434.65C469.868 434.65 465.206 431.514 461.58 432.559C457.954 433.604 457.954 437.785 455.365 440.92C458.472 440.92 459.508 443.01 463.134 443.01C466.242 443.01 472.458 444.055 475.566 444.578C471.94 444.578 465.724 443.01 461.58 443.533C457.954 444.055 454.846 446.668 451.221 447.713C447.595 448.758 442.933 446.145 439.825 448.236C436.717 449.803 434.127 453.461 431.537 456.596C435.163 458.686 439.307 460.254 442.933 461.299C446.559 462.867 450.703 464.434 454.329 465.479C458.472 466.002 462.616 465.479 466.76 465.479C470.904 465.479 474.53 462.344 478.674 462.344C482.818 461.822 488.516 466.524 492.142 465.479C487.998 466.524 481.782 465.479 477.12 466.524C472.458 467.569 468.314 469.137 463.652 469.137C460.026 469.137 455.883 471.227 452.775 470.705C449.149 470.182 447.077 462.867 443.969 461.822C440.343 461.299 436.717 460.254 433.091 459.731C429.465 459.209 425.839 463.912 422.213 464.434C418.587 464.957 414.443 461.822 410.817 462.867C407.192 463.912 403.048 464.434 399.94 466.002C397.35 467.047 396.314 472.795 393.206 472.795C389.58 472.795 384.918 471.227 381.81 469.66C378.702 467.569 377.148 460.776 373.522 459.731C369.896 459.209 362.645 459.209 359.019 459.731C359.019 462.867 362.645 470.182 365.234 471.75C367.824 473.317 371.45 475.408 374.558 475.93C378.702 476.975 383.364 474.885 386.99 475.93C390.616 476.975 394.76 478.02 398.904 479.065C400.458 479.588 403.566 478.543 405.12 480.11C409.264 483.246 408.746 491.606 407.192 496.309C406.674 499.444 406.156 502.057 405.12 505.192C404.602 508.328 403.566 509.373 403.048 511.985C404.602 512.508 405.638 513.553 406.674 514.598C410.817 514.598 414.961 516.166 418.587 515.643C419.623 515.643 420.659 515.643 422.213 515.643C424.285 513.553 426.357 508.85 428.429 507.805C429.465 508.85 431.019 514.598 432.055 515.643C428.947 516.166 425.321 516.166 422.213 516.166C421.695 516.688 421.177 517.211 420.659 517.211C417.551 517.733 413.407 517.211 410.299 516.688C408.746 516.688 407.71 515.643 406.674 515.121C406.156 515.121 406.156 515.121 405.638 515.121C401.494 515.643 396.314 516.688 392.17 517.211C391.134 519.823 395.278 522.959 396.314 525.571C397.35 527.661 396.832 530.797 397.868 532.887C397.35 532.364 396.832 531.842 396.314 531.319C393.724 529.752 392.17 527.139 390.098 524.526C388.026 522.436 385.436 520.868 384.918 517.733C384.4 514.598 383.364 511.463 384.918 508.85C386.472 506.237 388.544 504.67 391.652 505.715C389.062 502.057 386.99 498.922 383.364 496.309C379.738 493.696 376.63 489.516 372.486 487.426C369.896 485.858 365.234 486.381 362.127 486.903C359.019 487.426 354.875 494.219 356.947 496.309C358.501 498.922 362.645 500.489 363.163 503.625C363.68 506.76 360.055 509.373 359.537 512.508C359.019 515.643 361.091 522.436 359.019 525.049C356.947 521.913 359.019 514.598 359.537 510.94C360.055 506.76 358.501 503.625 355.911 501.012C354.357 498.922 353.321 496.832 352.285 494.219C350.731 491.606 353.839 487.426 353.321 484.291C352.285 480.633 346.587 479.065 342.443 477.498C339.335 476.453 334.155 474.885 330.529 474.885C330.529 478.02 330.529 481.678 329.493 484.813C328.457 487.948 328.457 487.426 325.867 489.516C324.831 485.858 322.759 484.291 324.313 480.633C325.349 478.543 328.457 476.453 330.529 474.885C331.565 473.84 332.083 472.272 331.565 471.227C330.529 468.092 324.831 468.092 322.241 467.047C319.133 465.479 316.026 464.434 312.918 462.867C309.81 461.299 306.702 459.731 303.594 458.164C302.04 457.641 299.968 457.119 299.45 456.074C298.414 453.983 298.932 449.281 299.968 447.713C301.522 444.578 301.522 444.578 299.968 441.443C298.414 438.83 299.45 433.604 296.86 432.037C294.27 430.469 290.644 429.424 287.536 428.379C284.428 427.334 280.802 426.289 278.212 424.721C280.802 427.857 286.5 430.992 287.536 435.172C288.572 439.352 286.5 444.578 285.982 448.758C285.464 452.938 283.91 456.596 281.32 460.254C281.838 457.119 284.428 455.029 284.946 451.893C285.464 448.758 282.874 445.623 282.356 442.488C281.838 439.352 282.356 435.172 280.802 432.559C279.248 429.947 276.658 425.766 273.55 424.721C269.925 423.154 264.745 426.811 261.119 426.811C257.493 426.289 254.385 423.154 251.277 421.586C247.651 420.018 244.543 418.973 241.953 416.883C238.845 414.793 235.737 413.748 233.147 410.613C232.629 414.793 230.557 418.973 231.593 423.154C232.629 427.334 235.219 430.992 237.291 434.65C239.363 438.307 241.435 442.488 244.025 445.1C246.615 448.236 249.723 451.893 253.349 453.983C257.493 456.596 261.119 458.686 264.227 461.822C266.817 464.434 271.997 466.002 272.514 470.182C273.55 473.84 269.407 478.02 269.407 482.201C268.889 486.381 270.443 490.561 269.925 494.219C269.407 498.399 271.996 502.057 271.996 506.237C271.996 508.85 271.996 508.85 273.55 510.418C275.622 512.508 276.658 513.03 279.766 513.553C283.392 514.075 285.464 519.823 288.572 521.913C291.68 524.004 297.896 527.139 299.968 530.274C295.824 528.706 288.572 527.139 284.428 526.094C280.284 524.526 276.14 521.391 271.996 520.346C269.925 519.823 269.407 516.688 267.335 515.121C263.709 511.985 261.119 508.85 262.155 504.147C263.191 499.444 262.155 494.219 263.191 489.516C263.709 485.858 266.299 482.723 265.781 479.065C264.745 475.408 261.119 473.84 259.047 470.705C256.975 467.569 256.457 463.389 253.867 461.299C250.759 459.209 246.615 456.596 243.507 456.074C241.953 460.254 245.061 466.524 244.543 470.705C243.507 474.885 239.881 478.543 239.363 482.723C240.917 486.903 240.399 495.264 239.363 499.444C239.363 495.264 238.845 487.426 239.363 482.723V482.201C237.809 478.02 235.219 474.885 235.737 470.705C236.255 467.047 236.255 462.867 237.809 459.209C239.881 455.551 239.363 454.506 237.291 450.848C236.255 448.758 235.737 448.236 234.183 446.145C230.557 441.965 234.183 434.127 233.147 428.379C232.629 423.676 227.967 420.018 227.449 415.316C227.449 413.748 228.485 412.703 227.449 411.658C225.895 410.09 223.306 406.955 221.234 406.955C217.608 407.478 213.982 411.658 210.356 410.613C206.73 409.568 205.176 403.297 201.55 401.73C198.442 400.685 195.852 399.117 192.744 398.072C189.636 397.027 185.492 399.117 182.384 397.549C179.277 396.504 175.651 396.504 173.061 394.937C168.917 393.369 166.327 389.189 162.701 387.099C162.183 386.576 161.665 386.576 161.147 386.053C161.147 398.072 162.701 410.09 164.773 421.586C169.435 421.064 174.097 420.018 179.277 418.973C181.866 418.451 184.456 418.451 187.046 418.973C189.636 419.496 191.708 421.064 193.78 422.631C201.55 428.379 210.356 436.217 210.356 446.145C209.838 456.074 201.032 464.434 202.586 473.84C204.14 481.155 211.392 485.336 216.572 491.084C221.234 496.309 223.824 503.625 223.824 510.94C219.68 513.03 214.5 513.553 209.838 513.03C216.572 520.868 224.342 528.184 232.629 534.977C237.291 529.229 243.507 525.049 250.241 525.571C250.241 536.022 259.047 544.905 269.407 546.995C279.248 549.086 290.126 545.95 298.932 540.725C306.184 552.743 318.615 560.581 332.083 563.717C345.551 566.852 359.537 566.329 373.004 562.672C370.414 559.014 370.414 553.788 373.522 550.131C376.63 546.995 381.81 545.428 385.436 547.518C389.58 549.608 391.652 553.788 395.278 556.924C402.53 562.672 413.407 560.581 422.731 557.446C429.983 555.356 437.753 552.221 441.379 545.95C443.969 540.725 443.451 533.932 446.559 528.707C449.149 524.526 453.811 522.436 455.365 517.733C456.918 513.553 455.365 508.85 452.775 504.67C450.703 500.489 447.595 496.832 447.077 492.129C446.559 487.426 449.149 482.201 453.293 481.678C456.918 486.903 463.134 490.561 468.314 493.696C476.084 497.877 483.336 502.057 491.106 506.237C492.66 507.282 494.732 507.805 496.286 508.327C499.912 504.147 503.537 499.444 506.645 494.741C506.127 489.516 505.091 484.291 503.019 479.065C501.983 476.975 500.948 474.362 501.466 471.75C502.501 466.524 509.753 464.434 512.343 459.731C513.897 457.119 513.897 453.983 514.415 451.371C515.969 443.533 521.667 437.262 525.293 429.947C528.919 423.154 529.955 412.703 523.739 408C515.969 401.73 504.055 408.523 494.732 404.342C495.25 401.207 498.358 398.594 501.466 398.072C504.055 396.504 499.912 392.846 497.322 392.846C494.214 392.846 490.07 392.324 490.07 389.711C484.372 386.053 492.142 378.738 500.43 376.125ZM402.012 543.86C399.422 543.338 397.868 539.68 395.796 537.067C398.386 538.635 402.012 537.067 405.12 537.59C408.228 538.112 410.817 538.635 413.407 538.635C410.817 541.247 405.638 544.905 402.012 543.86Z" fill="#C74D00"/>
<g style="mix-blend-mode:overlay">
<path d="M397.595 536.92C399.162 539.461 400.729 543.017 403.864 543.525C407.521 544.541 413.267 540.985 415.357 537.936C412.745 537.936 409.61 537.428 406.998 536.92C403.864 536.92 400.207 538.445 397.595 536.92Z" fill="url(#paint2_linear_275_942)"/>
</g>
<g style="mix-blend-mode:overlay">
<path d="M322.304 484.425C320.326 488.239 322.304 489.874 323.787 493.688C325.765 491.509 325.765 491.509 327.249 488.784C328.238 486.059 328.238 481.7 328.238 478.43C326.26 480.61 323.293 482.245 322.304 484.425Z" fill="url(#paint3_linear_275_942)"/>
</g>
<path d="M501.63 429.265C500.107 430.96 498.585 432.09 496.555 432.655C498.585 431.525 500.615 430.96 501.63 429.265Z" fill="url(#paint4_linear_275_942)"/>
<g style="mix-blend-mode:overlay">
<path d="M420.432 517.424C423.637 517.424 427.376 517.424 430.582 516.947C429.513 515.993 427.911 510.748 426.842 509.794C424.705 511.225 422.569 515.516 420.432 517.424Z" fill="url(#paint5_linear_275_942)"/>
</g>
<path d="M405.207 516.576C406.278 517.368 407.35 517.764 408.957 517.764C412.171 517.764 416.456 518.556 419.67 518.16C420.206 518.16 420.742 517.764 421.278 517.368C420.206 517.368 419.135 517.368 417.528 517.368C413.778 518.16 409.492 516.576 405.207 516.576Z" fill="url(#paint6_linear_275_942)"/>
<g style="mix-blend-mode:overlay">
<path d="M452.573 406.211C455.191 407.229 457.81 408.754 459.381 407.737C461.999 406.211 465.665 404.177 468.283 401.634C469.331 400.617 467.76 396.548 467.76 395.023C467.76 392.988 468.283 389.937 467.236 388.411C466.189 386.377 465.141 384.851 467.236 384.851C465.665 381.8 457.286 384.343 457.286 387.903C457.286 390.954 465.141 395.023 464.617 398.074C463.57 402.143 456.762 405.194 452.573 406.211Z" fill="url(#paint7_linear_275_942)"/>
</g>
<g style="mix-blend-mode:overlay">
<path d="M413.665 408.14C411.583 408.14 409.501 407.682 406.899 407.225C408.46 407.682 409.501 408.14 411.063 408.598C415.227 409.513 416.268 408.14 420.432 408.598C417.309 407.225 416.788 408.598 413.665 408.14Z" fill="url(#paint8_linear_275_942)"/>
</g>
<path d="M400.978 430.96C399.075 430.96 396.22 431.384 393.366 431.808C396.22 431.808 398.599 431.808 400.978 430.96Z" fill="url(#paint9_linear_275_942)"/>
<path d="M374.107 428.417C373.587 428.417 373.587 428.417 373.066 428.417C374.107 428.982 375.148 429.547 376.189 430.112C379.833 431.243 383.476 432.938 387.64 433.503C389.202 433.503 391.284 433.503 393.366 432.938C390.763 432.938 388.681 432.938 386.599 432.938C381.915 432.373 378.271 429.547 374.107 428.417Z" fill="url(#paint10_linear_275_942)"/>
<g style="mix-blend-mode:overlay">
<path d="M479.36 435.202C475.184 434.155 472.052 428.399 467.875 427.876C463.699 426.829 457.956 427.353 453.78 428.399C450.648 429.446 446.993 432.586 443.861 434.679C441.251 436.772 440.207 442.005 437.074 443.575C433.942 445.668 430.81 445.668 427.156 446.191C428.2 442.528 431.332 440.958 434.464 439.912C434.464 438.342 432.376 434.156 431.332 433.109C428.722 435.202 428.2 440.435 425.589 443.052C423.501 445.668 418.803 445.668 416.193 448.284C414.104 450.901 411.494 452.471 408.884 454.564C406.274 456.657 404.708 459.797 401.575 460.844C398.443 461.89 394.789 463.46 391.656 463.46C388.524 462.937 385.392 460.844 382.782 458.75C381.216 457.18 381.738 452.471 380.171 451.424C378.605 450.378 374.429 451.424 372.341 450.901C368.686 449.854 365.554 446.715 361.9 445.668C358.246 444.621 353.025 450.901 349.371 450.378C345.716 449.331 343.106 444.098 339.452 443.052C335.798 442.005 332.143 442.005 328.489 440.958C324.835 439.912 320.136 442.005 316.482 440.958C312.827 439.912 309.695 436.772 306.563 435.202C303.431 433.632 300.82 430.492 298.21 428.399C298.732 428.399 299.776 428.399 300.298 428.399C305.519 428.399 310.217 426.306 314.916 424.736C318.57 423.69 322.224 424.213 325.879 423.69C329.533 423.166 333.187 418.98 336.842 419.503C340.496 419.503 343.628 424.213 347.283 424.736C351.459 425.783 355.113 428.923 358.768 429.969C362.422 431.016 367.12 428.923 371.297 429.446C369.208 427.876 367.12 425.783 365.032 424.213C362.422 422.643 361.378 420.027 359.29 417.933C357.201 415.84 352.503 416.363 350.415 414.27C348.327 412.177 347.805 408.514 345.194 407.467C342.584 406.421 337.364 406.421 334.753 407.467C337.364 405.374 341.54 401.188 344.672 400.665C347.805 400.141 351.459 400.665 354.591 400.665C357.723 400.665 360.334 404.328 363.466 404.851C366.598 405.374 370.253 402.758 373.385 403.804C376.517 404.851 379.649 405.374 382.782 405.898C385.914 406.421 388.524 411.654 391.134 411.654C394.267 411.654 397.921 409.037 401.053 409.037C402.097 409.037 403.141 409.037 404.186 409.037C401.575 407.991 399.487 406.944 396.877 406.421C393.223 405.374 388.524 405.374 384.87 403.281C384.348 400.665 382.26 395.432 379.127 393.338C378.605 393.338 378.083 392.815 378.083 392.815C381.738 392.815 388.002 391.245 391.656 390.722C388.002 389.675 381.738 389.675 378.605 389.152C374.951 388.629 371.297 383.919 367.642 383.919C363.988 383.919 360.334 388.105 356.679 389.152C353.025 389.675 349.893 391.769 346.76 392.815C343.106 393.862 336.842 394.908 333.709 396.478C336.32 393.862 343.628 393.338 347.283 391.245C350.415 389.152 351.459 383.396 355.113 381.826C358.768 380.256 361.9 378.163 365.554 377.116C369.208 376.07 373.385 376.593 377.039 376.07C380.693 375.546 384.348 380.256 388.002 380.779C391.134 380.779 393.745 380.256 396.877 381.303C400.009 382.349 402.097 382.873 403.664 385.489C405.23 388.105 406.796 390.722 408.362 393.338C409.928 395.432 411.494 399.095 413.582 400.665C416.193 402.758 420.891 401.711 423.501 403.281C426.111 404.851 429.244 405.374 432.376 406.421C435.508 407.467 437.597 410.084 441.251 410.607C443.861 410.607 445.949 408.514 448.559 406.944C446.471 406.421 444.383 405.374 442.295 404.851C438.641 404.328 434.464 403.804 431.332 402.234C427.678 400.665 427.156 395.955 424.023 393.338C421.413 390.722 419.847 388.105 417.759 384.442C415.671 380.779 413.06 380.256 412.016 376.593C415.671 376.593 417.237 378.686 420.369 378.686C424.023 378.686 427.156 377.116 430.81 377.116C434.464 377.116 437.597 375.546 441.251 375.546C444.905 375.546 448.037 377.116 451.692 377.116C454.824 377.116 459 371.36 462.133 371.883C462.655 371.883 463.177 371.883 463.177 372.407C462.655 372.93 461.611 372.93 460.567 373.453C464.221 375.546 466.309 375.546 469.441 377.64C467.353 375.546 465.265 373.453 462.655 372.407C464.743 371.36 466.309 369.267 468.919 367.697C472.052 366.127 477.794 367.697 480.404 365.604C483.537 363.511 486.669 361.941 489.801 359.848C492.933 357.754 495.022 355.138 498.154 354.091C501.286 353.045 503.896 348.858 507.551 348.858C503.896 348.335 499.72 347.288 496.588 348.335C492.933 349.382 489.801 352.521 486.147 353.568C483.015 355.138 481.448 360.894 478.316 362.464C475.184 364.034 469.441 361.417 466.309 362.987C463.177 364.557 460.044 367.174 456.39 368.22C452.736 369.267 448.559 367.174 444.905 367.174C441.251 367.697 437.597 370.313 433.42 369.79C429.766 369.267 426.112 368.22 421.935 367.697C418.281 367.174 414.104 366.65 410.45 365.604C406.796 364.557 403.141 363.511 398.965 362.464C395.311 361.941 390.612 365.604 386.958 365.08C383.304 364.557 379.649 357.754 375.995 357.754C371.819 357.754 368.164 362.464 364.51 362.987C360.856 363.511 358.246 366.127 354.591 367.697C350.937 369.267 345.194 367.174 341.54 369.267C337.886 371.36 336.842 377.116 333.709 379.209C330.577 381.303 327.967 383.396 324.835 384.966C321.702 387.059 319.092 389.675 315.96 391.245C312.828 392.815 308.129 392.292 304.997 393.862C301.865 395.432 297.688 395.432 294.556 397.002C291.424 398.571 290.38 404.328 287.247 405.898C283.593 407.467 278.895 407.467 275.24 407.991C270.542 407.991 265.843 407.467 261.145 405.898C257.491 405.898 253.836 405.898 249.66 405.374C245.484 404.851 241.829 403.804 237.653 403.281C233.477 402.758 229.822 396.478 225.646 395.955C221.469 395.432 216.771 399.095 212.595 398.048C208.418 397.002 203.72 395.955 200.066 394.385C196.411 392.292 195.367 386.536 192.235 383.396C189.103 380.256 184.404 378.163 180.75 376.07C178.14 374.5 174.485 376.07 171.353 375.546C166.655 374.5 164.566 368.22 160.39 365.604C159.346 364.557 158.302 364.034 157.258 364.034C156.214 372.407 155.692 380.779 155.692 389.675C155.692 390.199 155.692 390.722 155.692 391.245C156.214 391.769 156.736 391.769 157.258 392.292C160.912 394.385 164.044 398.571 167.699 400.141C170.831 401.188 174.485 401.188 177.096 402.758C180.228 403.804 184.404 401.711 187.536 403.281C190.669 404.328 193.279 405.898 196.411 406.944C200.066 408.514 201.632 414.794 205.286 415.84C208.94 416.887 212.595 412.7 216.249 412.177C218.337 411.654 220.947 415.317 222.514 416.887C223.558 417.933 221.992 418.98 222.514 420.55C223.036 425.259 227.734 428.923 228.256 433.632C228.778 438.865 225.646 447.238 229.3 451.424C230.866 452.994 231.388 454.041 232.432 456.134C234.521 459.797 235.043 460.844 232.954 464.507C231.388 468.17 231.388 472.356 230.866 476.019C230.344 480.206 232.954 483.345 234.521 487.532C235.043 483.345 239.219 479.682 239.741 475.496C240.785 471.309 237.653 465.03 238.697 460.844C242.351 461.367 246.528 463.983 249.138 466.077C252.27 468.17 252.792 472.356 254.358 475.496C256.447 478.636 260.101 480.729 261.145 483.869C262.189 487.532 259.057 490.671 258.535 494.335C257.491 499.044 258.535 504.277 257.491 508.987C256.447 513.696 259.057 516.836 262.711 519.976C264.799 521.546 264.799 524.162 267.41 525.209C271.586 526.256 275.762 529.919 279.939 530.965C284.115 532.535 291.424 534.105 295.6 535.152C293.512 532.012 287.247 528.872 284.115 526.779C280.983 524.686 278.895 518.929 275.24 518.406C272.108 517.883 271.064 517.359 268.976 515.266C267.41 513.696 267.41 513.173 267.41 511.08C267.41 506.894 264.277 503.231 265.321 499.044C265.843 494.858 264.277 491.195 264.799 487.008C265.321 482.822 268.976 479.159 267.932 474.973C266.887 470.786 262.189 469.74 259.579 466.6C256.447 462.937 252.792 460.844 248.616 458.75C244.962 456.657 241.829 452.994 239.219 449.854C236.609 446.715 234.521 443.052 232.432 439.388C230.866 435.725 227.734 432.062 226.69 427.876C226.168 423.69 228.256 419.503 228.256 415.317C230.866 417.933 233.999 419.503 237.131 421.596C240.263 423.69 243.395 425.259 246.528 426.306C249.66 427.876 252.792 431.016 256.447 431.539C260.101 432.062 265.321 427.876 268.976 429.446C272.108 430.492 274.718 434.679 276.284 437.295C277.85 439.912 277.328 444.098 277.85 447.238C278.372 450.378 280.461 453.517 280.461 456.657C280.461 459.797 277.328 461.89 276.806 465.03C278.895 461.367 280.983 458.227 281.505 453.517C282.027 449.331 284.637 444.098 283.071 439.912C282.027 435.725 276.284 433.109 273.674 429.446C276.284 431.539 279.939 432.062 283.071 433.109C286.203 434.156 289.857 435.202 292.468 436.772C295.078 438.342 294.034 443.575 295.6 446.191C297.166 449.331 297.688 449.331 295.6 452.471C294.556 454.564 294.034 458.75 295.078 460.844C295.6 462.413 298.21 462.413 299.254 462.937C302.387 464.507 305.519 466.077 308.651 467.646C311.783 469.216 314.916 470.263 318.048 471.833C320.658 472.879 326.401 473.403 327.445 476.019C327.967 477.066 327.445 478.636 326.401 479.682C330.055 479.682 334.753 481.252 338.408 482.299C342.062 483.345 348.327 484.915 349.371 489.102C349.893 492.241 346.76 495.904 348.327 499.044C349.893 501.137 350.415 503.754 351.981 505.847C354.591 508.987 356.157 511.603 355.635 515.79C355.113 519.976 353.025 526.779 355.113 529.919C356.679 527.302 355.113 520.499 355.635 517.36C356.157 514.22 359.812 511.603 359.29 508.463C358.768 505.324 354.591 503.754 353.025 501.137C350.937 499.044 355.113 492.241 358.246 491.718C361.378 491.195 365.554 490.671 368.686 492.241C372.863 494.334 375.995 498.521 379.649 501.137C383.304 503.754 385.392 506.894 388.002 510.557C384.87 510.033 382.782 511.08 381.216 513.696C379.649 516.313 380.693 519.976 381.216 522.592C381.738 525.732 384.348 526.779 386.436 529.395C388.524 531.488 390.09 534.105 392.701 536.198C393.223 536.721 393.745 537.245 394.267 537.768C393.745 535.675 393.745 532.535 392.701 530.442C391.134 527.825 387.48 524.686 388.524 522.069C392.701 521.546 397.921 520.499 402.097 519.976C402.619 519.976 402.619 519.976 403.141 519.976C402.097 518.929 401.053 517.883 399.487 517.36C400.009 514.22 401.053 513.173 401.575 510.557C402.097 507.417 402.619 504.8 403.664 501.661C405.23 496.951 405.23 488.578 401.575 485.438C400.009 484.392 397.399 484.915 395.311 484.392C391.134 483.345 387.48 482.299 383.304 481.252C379.127 480.206 374.429 482.299 370.775 481.252C367.642 480.206 363.988 478.636 361.378 477.066C358.768 474.973 355.113 468.17 355.113 465.03C358.768 464.507 366.076 463.983 369.731 465.03C373.385 466.077 374.951 472.879 378.083 474.973C381.216 477.066 385.914 478.112 389.568 478.112C392.178 478.112 393.745 472.356 396.355 471.309C399.487 469.74 403.664 469.216 407.318 468.17C410.972 467.123 415.149 470.263 418.803 469.74C422.457 469.216 426.112 465.03 429.766 465.03C433.42 465.553 437.074 466.6 440.729 467.123C444.383 468.17 446.471 474.973 449.604 476.019C453.258 476.542 457.434 474.449 460.567 474.449C465.265 474.449 469.963 472.879 474.14 471.833C478.838 470.786 484.581 471.833 489.279 470.786C485.103 471.833 479.36 467.123 475.706 467.646C471.53 468.17 467.875 471.309 463.699 470.786C459.522 470.786 455.346 471.309 451.17 470.786C446.993 469.74 443.339 468.17 439.685 466.6C436.03 465.03 431.854 463.46 428.2 461.89C430.81 458.75 433.42 455.611 436.552 453.517C439.685 451.948 444.383 454.041 448.037 452.994C451.692 451.948 454.824 449.331 458.478 448.808C462.133 448.284 468.919 449.854 472.574 449.854C469.441 449.331 463.177 448.808 460.044 448.284C456.912 448.284 455.868 445.668 452.214 446.191C454.824 443.052 454.824 438.865 458.478 437.819C461.611 436.772 466.309 440.435 470.485 439.912C474.14 439.912 477.794 440.435 481.448 439.912C485.103 439.912 488.235 436.772 491.889 435.725C493.455 435.202 495.022 435.202 496.066 434.679C494.5 435.202 492.411 435.202 490.323 435.202C487.713 433.109 483.537 435.725 479.36 435.202ZM371.819 391.769C369.208 391.245 367.12 390.722 365.554 389.675C367.12 390.199 369.731 390.722 371.819 391.769Z" fill="url(#paint11_linear_275_942)"/>
</g>
<path d="M234.775 485.211C234.775 485.725 234.775 485.725 234.775 485.211C234.211 489.835 234.211 497.541 234.775 502.165C236.467 498.055 236.467 489.835 234.775 485.211C234.775 485.725 234.775 485.211 234.775 485.211Z" fill="url(#paint12_linear_275_942)"/>
<path d="M447.498 406.728C449.113 407.079 451.266 407.43 452.88 407.079H453.419C451.804 406.728 450.189 406.377 449.113 406.377C448.574 406.377 448.036 406.728 447.498 406.728Z" fill="url(#paint13_linear_275_942)"/>
<g style="mix-blend-mode:overlay" opacity="0.3">
<path d="M472.026 288.732C468.373 289.781 465.763 286.111 463.153 283.491C458.455 278.249 451.148 276.152 444.362 278.249C437.577 280.345 432.357 286.111 431.313 292.926C430.791 296.595 430.791 300.789 430.791 304.458C430.269 312.321 426.615 320.183 420.874 325.95C417.742 328.57 413.566 331.191 409.912 328.57C405.215 325.425 408.868 317.563 409.912 311.797C410.956 303.934 405.737 296.595 398.951 293.45C391.644 290.829 383.292 292.402 377.029 296.595C375.463 297.644 374.419 298.692 373.375 300.264C371.809 302.361 371.809 304.982 371.287 307.603C370.243 318.087 369.199 329.619 361.37 336.957C354.062 343.772 343.101 344.296 333.183 344.82C326.92 344.82 320.656 345.344 314.392 345.344C310.739 336.433 330.573 332.24 327.964 322.804C327.442 319.659 323.788 317.563 320.134 317.563C316.48 317.563 313.349 319.135 310.739 320.183C288.294 329.619 264.806 337.482 240.273 338.53C240.795 336.957 243.405 336.957 243.927 338.006C245.493 333.812 246.015 328.57 244.971 323.853C264.806 319.135 284.64 315.466 304.475 313.369C312.305 312.321 320.656 311.797 326.92 307.079C333.183 302.361 336.837 292.402 331.617 286.111C330.051 284.015 327.442 281.918 327.442 279.297C327.442 277.725 329.008 276.152 330.051 274.579C335.271 269.338 339.969 264.096 345.189 258.854C337.881 252.039 330.051 244.701 322.744 237.886C322.744 233.693 325.876 229.499 330.051 228.451C326.92 221.637 317.524 220.064 310.217 219.54C289.86 219.016 269.503 222.685 250.191 229.499L244.449 228.975C243.927 228.451 243.405 228.451 242.883 228.451C273.157 208.532 308.651 197 347.276 197C385.38 197 420.874 208.008 450.626 227.403C452.192 232.12 452.192 237.886 449.06 241.556C439.665 236.314 427.137 239.459 420.874 247.846C417.22 253.088 417.22 261.475 422.962 263.572C425.049 264.096 427.137 264.096 428.703 264.096C443.84 263.047 459.499 267.765 471.505 277.2C472.026 281.918 472.026 285.063 472.026 288.732Z" fill="url(#paint14_linear_275_942)"/>
</g>
<path opacity="0.1" d="M290.748 367.285C289.19 367.809 287.633 368.334 286.076 369.384C280.884 372.534 277.25 378.834 271.02 379.883C265.309 380.933 258.56 377.784 252.33 378.309C244.024 378.834 235.717 377.784 227.411 377.784C222.219 377.784 216.509 377.784 212.355 374.634C203.53 369.384 200.934 356.26 191.07 353.636C186.917 352.586 182.764 353.636 178.091 354.161C171.861 354.686 165.631 353.636 159.921 351.536C163.036 337.362 167.189 323.188 173.419 310.589C174.457 310.589 174.976 310.589 176.015 310.589C177.053 315.839 177.572 320.563 178.61 325.813C179.13 327.913 179.13 329.488 180.168 331.063C183.802 336.312 191.589 332.113 197.3 329.488C203.53 326.863 210.279 325.813 216.509 326.863C220.143 332.113 207.164 338.412 211.317 343.662C212.355 345.236 213.913 345.236 215.47 346.286C219.624 349.436 218.066 356.785 222.219 359.41C223.258 359.935 224.815 360.46 226.373 360.46C239.352 361.51 251.811 358.36 264.79 359.935C266.348 359.935 268.943 361.51 267.905 363.085C266.348 364.135 265.309 364.66 263.752 365.71C279.327 364.66 294.901 363.61 310.476 362.035C310.476 362.56 309.957 363.085 309.438 363.61C302.689 365.71 296.459 365.71 290.748 367.285Z" fill="url(#paint15_linear_275_942)"/>
<g style="mix-blend-mode:lighten">
<path d="M218.282 515.993C214.127 518.083 208.934 518.605 204.259 518.083C181.927 493.007 165.827 461.662 159.075 427.183C163.749 426.66 168.423 425.615 173.617 424.571C176.214 424.048 178.811 424.048 181.407 424.571C184.004 425.093 186.082 426.66 188.159 428.227C195.95 433.974 204.779 441.81 204.779 451.736C204.259 461.662 195.43 470.021 196.988 479.424C198.546 486.738 205.817 490.917 211.011 496.664C215.685 501.366 218.282 508.68 218.282 515.993Z" fill="#C74D00"/>
</g>
<g style="mix-blend-mode:lighten" opacity="0.5">
<path d="M538 388.911C538 429.403 525.06 467.299 503.839 497.927C503.321 492.736 502.286 487.544 500.215 482.353C499.18 480.277 498.145 477.681 498.663 475.086C499.698 469.894 506.944 467.818 509.532 463.146C511.085 460.55 511.085 457.435 511.603 454.84C513.155 447.053 518.849 440.823 522.472 433.556C526.095 426.807 527.13 416.425 520.919 411.752C513.155 405.523 501.251 412.272 491.934 408.119C492.452 405.004 495.557 402.408 498.663 401.889C501.251 400.332 497.11 396.698 494.522 396.698C491.416 396.698 487.276 396.179 487.276 393.583C486.758 384.758 494.522 377.49 502.803 374.376C511.085 371.261 519.884 371.261 528.166 368.146C531.271 367.108 533.859 365.551 536.965 363.993C537.482 372.818 538 381.124 538 388.911Z" fill="url(#paint16_linear_275_942)"/>
</g>
<g style="mix-blend-mode:lighten" opacity="0.5">
<path d="M494.018 512.054C459.016 554.158 406.252 581 347.219 581C301.769 581 260.498 565.211 227.586 538.895C232.288 533.106 238.557 528.895 245.348 529.422C245.348 539.948 254.229 548.895 264.677 551C274.603 553.106 285.574 549.948 294.455 544.685C301.769 556.79 314.307 564.684 327.89 567.842C341.472 571 355.578 570.474 369.16 566.79C366.548 563.106 366.548 557.842 369.683 554.158C372.817 551 378.042 549.421 381.698 551.527C385.878 553.632 387.967 557.842 391.624 561C398.938 566.79 409.909 564.684 419.312 561.527C426.626 559.421 434.462 556.263 438.119 549.948C440.731 544.685 440.209 537.843 443.343 532.58C445.955 528.369 450.657 526.264 452.224 521.527C453.792 517.317 452.224 512.58 449.612 508.369C447.523 504.159 444.388 500.475 443.866 495.738C443.343 491.001 445.955 485.738 450.135 485.212C453.792 490.475 460.061 494.159 465.285 497.317C473.121 501.527 480.435 505.738 488.271 509.948C490.361 511.001 491.928 511.527 494.018 512.054Z" fill="url(#paint17_linear_275_942)"/>
</g>
<g style="mix-blend-mode:soft-light">
<path d="M346.423 581C452.228 581 538 495.228 538 389.424C538 283.619 452.228 197.848 346.423 197.848C240.618 197.848 154.846 283.619 154.846 389.424C154.846 495.228 240.618 581 346.423 581Z" fill="url(#paint18_radial_275_942)"/>
</g>
<g style="mix-blend-mode:overlay" opacity="0.4">
<path d="M346.423 581C452.228 581 538 495.228 538 389.424C538 283.619 452.228 197.848 346.423 197.848C240.618 197.848 154.846 283.619 154.846 389.424C154.846 495.228 240.618 581 346.423 581Z" fill="url(#paint19_radial_275_942)"/>
</g>
<g style="mix-blend-mode:screen">
<path d="M346.423 581C452.228 581 538 495.228 538 389.424C538 283.619 452.228 197.848 346.423 197.848C240.618 197.848 154.846 283.619 154.846 389.424C154.846 495.228 240.618 581 346.423 581Z" fill="url(#paint20_radial_275_942)"/>
</g>
<defs>
<filter id="filter0_d_275_942" x="-42.6167" y="0.383301" width="777.234" height="777.233" filterUnits="userSpaceOnUse" color-interpolation-filters="sRGB">
<feFlood flood-opacity="0" result="BackgroundImageFix"/>
<feColorMatrix in="SourceAlpha" type="matrix" values="0 0 0 0 0 0 0 0 0 0 0 0 0 0 0 0 0 0 127 0" result="hardAlpha"/>
<feOffset/>
<feGaussianBlur stdDeviation="100"/>
<feComposite in2="hardAlpha" operator="out"/>
<feColorMatrix type="matrix" values="0 0 0 0 0.823529 0 0 0 0 0.372549 0 0 0 0 0.00392157 0 0 0 1 0"/>
<feBlend mode="normal" in2="BackgroundImageFix" result="effect1_dropShadow_275_942"/>
<feBlend mode="normal" in="SourceGraphic" in2="effect1_dropShadow_275_942" result="shape"/>
</filter>
<radialGradient id="paint0_radial_275_942" cx="0" cy="0" r="1" gradientUnits="userSpaceOnUse" gradientTransform="translate(346.137 389.138) scale(188.754)">
<stop offset="0.7673" stop-color="#C1272D"/>
<stop offset="0.773" stop-color="#B3242A"/>
<stop offset="0.7936" stop-color="#841B1F"/>
<stop offset="0.8149" stop-color="#5B1215"/>
<stop offset="0.8366" stop-color="#3A0C0E"/>
<stop offset="0.8588" stop-color="#210708"/>
<stop offset="0.8817" stop-color="#0E0303"/>
<stop offset="0.9057" stop-color="#040101"/>
<stop offset="0.9327"/>
</radialGradient>
<radialGradient id="paint1_radial_275_942" cx="0" cy="0" r="1" gradientUnits="userSpaceOnUse" gradientTransform="translate(244.557 253.104) scale(94.1493 94.4205)">
<stop stop-color="white"/>
<stop offset="0.0669381" stop-color="#E9E9E9"/>
<stop offset="0.3323" stop-color="#979797"/>
<stop offset="0.5676" stop-color="#565656"/>
<stop offset="0.764" stop-color="#282828"/>
<stop offset="0.9141" stop-color="#0B0B0B"/>
<stop offset="1"/>
</radialGradient>
<linearGradient id="paint2_linear_275_942" x1="462.146" y1="283.799" x2="364.339" y2="754.859" gradientUnits="userSpaceOnUse">
<stop stop-color="white"/>
<stop offset="0.0669381" stop-color="#E9E9E9"/>
<stop offset="0.3323" stop-color="#979797"/>
<stop offset="0.5676" stop-color="#565656"/>
<stop offset="0.764" stop-color="#282828"/>
<stop offset="0.9141" stop-color="#0B0B0B"/>
<stop offset="1"/>
</linearGradient>
<linearGradient id="paint3_linear_275_942" x1="370.836" y1="248.367" x2="253.336" y2="747.769" gradientUnits="userSpaceOnUse">
<stop stop-color="white"/>
<stop offset="0.0669381" stop-color="#E9E9E9"/>
<stop offset="0.3323" stop-color="#979797"/>
<stop offset="0.5676" stop-color="#565656"/>
<stop offset="0.764" stop-color="#282828"/>
<stop offset="0.9141" stop-color="#0B0B0B"/>
<stop offset="1"/>
</linearGradient>
<linearGradient id="paint4_linear_275_942" x1="528.307" y1="279.371" x2="405.312" y2="796.679" gradientUnits="userSpaceOnUse">
<stop stop-color="white"/>
<stop offset="0.0669381" stop-color="#E9E9E9"/>
<stop offset="0.3323" stop-color="#979797"/>
<stop offset="0.5676" stop-color="#565656"/>
<stop offset="0.764" stop-color="#282828"/>
<stop offset="0.9141" stop-color="#0B0B0B"/>
<stop offset="1"/>
</linearGradient>
<linearGradient id="paint5_linear_275_942" x1="477.554" y1="299.914" x2="392.746" y2="744.919" gradientUnits="userSpaceOnUse">
<stop stop-color="white"/>
<stop offset="0.0669381" stop-color="#E9E9E9"/>
<stop offset="0.3323" stop-color="#979797"/>
<stop offset="0.5676" stop-color="#565656"/>
<stop offset="0.764" stop-color="#282828"/>
<stop offset="0.9141" stop-color="#0B0B0B"/>
<stop offset="1"/>
</linearGradient>
<linearGradient id="paint6_linear_275_942" x1="465.914" y1="334.696" x2="406.904" y2="708.453" gradientUnits="userSpaceOnUse">
<stop stop-color="white"/>
<stop offset="0.0669381" stop-color="#E9E9E9"/>
<stop offset="0.3323" stop-color="#979797"/>
<stop offset="0.5676" stop-color="#565656"/>
<stop offset="0.764" stop-color="#282828"/>
<stop offset="0.9141" stop-color="#0B0B0B"/>
<stop offset="1"/>
</linearGradient>
<linearGradient id="paint7_linear_275_942" x1="487.154" y1="283.926" x2="389.365" y2="755.53" gradientUnits="userSpaceOnUse">
<stop stop-color="white"/>
<stop offset="0.0669381" stop-color="#E9E9E9"/>
<stop offset="0.3323" stop-color="#979797"/>
<stop offset="0.5676" stop-color="#565656"/>
<stop offset="0.764" stop-color="#282828"/>
<stop offset="0.9141" stop-color="#0B0B0B"/>
<stop offset="1"/>
</linearGradient>
<linearGradient id="paint8_linear_275_942" x1="442.727" y1="288.298" x2="362.452" y2="715.875" gradientUnits="userSpaceOnUse">
<stop stop-color="white"/>
<stop offset="0.0669381" stop-color="#E9E9E9"/>
<stop offset="0.3323" stop-color="#979797"/>
<stop offset="0.5676" stop-color="#565656"/>
<stop offset="0.764" stop-color="#282828"/>
<stop offset="0.9141" stop-color="#0B0B0B"/>
<stop offset="1"/>
</linearGradient>
<linearGradient id="paint9_linear_275_942" x1="428.472" y1="300.287" x2="353.233" y2="695.854" gradientUnits="userSpaceOnUse">
<stop stop-color="white"/>
<stop offset="0.0669381" stop-color="#E9E9E9"/>
<stop offset="0.3323" stop-color="#979797"/>
<stop offset="0.5676" stop-color="#565656"/>
<stop offset="0.764" stop-color="#282828"/>
<stop offset="0.9141" stop-color="#0B0B0B"/>
<stop offset="1"/>
</linearGradient>
<linearGradient id="paint10_linear_275_942" x1="417.619" y1="253.81" x2="297.364" y2="772.561" gradientUnits="userSpaceOnUse">
<stop stop-color="white"/>
<stop offset="0.0669381" stop-color="#E9E9E9"/>
<stop offset="0.3323" stop-color="#979797"/>
<stop offset="0.5676" stop-color="#565656"/>
<stop offset="0.764" stop-color="#282828"/>
<stop offset="0.9141" stop-color="#0B0B0B"/>
<stop offset="1"/>
</linearGradient>
<linearGradient id="paint11_linear_275_942" x1="358.321" y1="253.947" x2="254.745" y2="737.893" gradientUnits="userSpaceOnUse">
<stop stop-color="white"/>
<stop offset="0.0669381" stop-color="#E9E9E9"/>
<stop offset="0.3323" stop-color="#979797"/>
<stop offset="0.5676" stop-color="#565656"/>
<stop offset="0.764" stop-color="#282828"/>
<stop offset="0.9141" stop-color="#0B0B0B"/>
<stop offset="1"/>
</linearGradient>
<linearGradient id="paint12_linear_275_942" x1="293.39" y1="243.44" x2="200.254" y2="722.209" gradientUnits="userSpaceOnUse">
<stop stop-color="white"/>
<stop offset="0.0669381" stop-color="#E9E9E9"/>
<stop offset="0.3323" stop-color="#979797"/>
<stop offset="0.5676" stop-color="#565656"/>
<stop offset="0.764" stop-color="#282828"/>
<stop offset="0.9141" stop-color="#0B0B0B"/>
<stop offset="1"/>
</linearGradient>
<linearGradient id="paint13_linear_275_942" x1="478.792" y1="320.897" x2="432.398" y2="653.988" gradientUnits="userSpaceOnUse">
<stop stop-color="white"/>
<stop offset="0.0669381" stop-color="#E9E9E9"/>
<stop offset="0.3323" stop-color="#979797"/>
<stop offset="0.5676" stop-color="#565656"/>
<stop offset="0.764" stop-color="#282828"/>
<stop offset="0.9141" stop-color="#0B0B0B"/>
<stop offset="1"/>
</linearGradient>
<linearGradient id="paint14_linear_275_942" x1="420.683" y1="178.914" x2="283.609" y2="350.674" gradientUnits="userSpaceOnUse">
<stop stop-color="white"/>
<stop offset="0.264" stop-color="#D5D5D5"/>
<stop offset="0.5968" stop-color="#A7A7A7"/>
<stop offset="0.8531" stop-color="#8A8A8A"/>
<stop offset="1" stop-color="#808080"/>
</linearGradient>
<linearGradient id="paint15_linear_275_942" x1="159.419" y1="345.21" x2="309.154" y2="345.21" gradientUnits="userSpaceOnUse">
<stop/>
<stop offset="0.0859316" stop-color="#0B0B0B"/>
<stop offset="0.236" stop-color="#282828"/>
<stop offset="0.4324" stop-color="#565656"/>
<stop offset="0.6677" stop-color="#979797"/>
<stop offset="0.9331" stop-color="#E9E9E9"/>
<stop offset="1" stop-color="white"/>
</linearGradient>
<linearGradient id="paint16_linear_275_942" x1="506.61" y1="341.954" x2="530.037" y2="520.169" gradientUnits="userSpaceOnUse">
<stop stop-color="white"/>
<stop offset="0.0669381" stop-color="#E9E9E9"/>
<stop offset="0.3323" stop-color="#979797"/>
<stop offset="0.5676" stop-color="#565656"/>
<stop offset="0.764" stop-color="#282828"/>
<stop offset="0.9141" stop-color="#0B0B0B"/>
<stop offset="1"/>
</linearGradient>
<linearGradient id="paint17_linear_275_942" x1="352.037" y1="441.175" x2="369.709" y2="607.811" gradientUnits="userSpaceOnUse">
<stop stop-color="white"/>
<stop offset="0.0669381" stop-color="#E9E9E9"/>
<stop offset="0.3323" stop-color="#979797"/>
<stop offset="0.5676" stop-color="#565656"/>
<stop offset="0.764" stop-color="#282828"/>
<stop offset="0.9141" stop-color="#0B0B0B"/>
<stop offset="1"/>
</linearGradient>
<radialGradient id="paint18_radial_275_942" cx="0" cy="0" r="1" gradientUnits="userSpaceOnUse" gradientTransform="translate(297.006 343.923) scale(215.662 215.661)">
<stop stop-color="white"/>
<stop offset="0.0916549" stop-color="#F9F9F9"/>
<stop offset="0.2174" stop-color="#E7E7E7"/>
<stop offset="0.3628" stop-color="#CACACA"/>
<stop offset="0.5231" stop-color="#A2A2A2"/>
<stop offset="0.6955" stop-color="#6E6E6E"/>
<stop offset="0.8752" stop-color="#303030"/>
<stop offset="1"/>
</radialGradient>
<radialGradient id="paint19_radial_275_942" cx="0" cy="0" r="1" gradientUnits="userSpaceOnUse" gradientTransform="translate(271.776 306.947) scale(333.435 333.434)">
<stop stop-color="white"/>
<stop offset="0.0669381" stop-color="#E9E9E9"/>
<stop offset="0.3323" stop-color="#979797"/>
<stop offset="0.5676" stop-color="#565656"/>
<stop offset="0.764" stop-color="#282828"/>
<stop offset="0.9141" stop-color="#0B0B0B"/>
<stop offset="1"/>
</radialGradient>
<radialGradient id="paint20_radial_275_942" cx="0" cy="0" r="1" gradientUnits="userSpaceOnUse" gradientTransform="translate(328.109 381.55) scale(252.539 252.538)">
<stop offset="0.7677"/>
<stop offset="1" stop-color="#FF0015"/>
</radialGradient>
</defs>
</svg>
